<?xml version="1.0" encoding="UTF-8" standalone="no"?>
<!-- Created with Inkscape (http://www.inkscape.org/) -->

<svg
   version="1.1"
   id="svg1"
   width="83.355461"
   height="47.539742"
   viewBox="0 0 83.35546 47.539741"
   sodipodi:docname="monitoreo.svg"
   inkscape:export-filename="combustible.svg"
   inkscape:export-xdpi="96"
   inkscape:export-ydpi="96"
   xml:space="preserve"
   xmlns:inkscape="http://www.inkscape.org/namespaces/inkscape"
   xmlns:sodipodi="http://sodipodi.sourceforge.net/DTD/sodipodi-0.dtd"
   xmlns="http://www.w3.org/2000/svg"
   xmlns:svg="http://www.w3.org/2000/svg"><defs
     id="defs1" /><sodipodi:namedview
     id="namedview1"
     pagecolor="#ffffff"
     bordercolor="#000000"
     borderopacity="0.25"
     inkscape:showpageshadow="2"
     inkscape:pageopacity="0.0"
     inkscape:pagecheckerboard="0"
     inkscape:deskcolor="#d1d1d1"
     inkscape:export-bgcolor="#ffffff00" /><g
     inkscape:groupmode="layer"
     inkscape:label="Image"
     id="g1"
     transform="translate(-44.365067,-8.572997)"><path
       style="fill:none;stroke:#ffffff;stroke-width:1.4719;stroke-opacity:1"
       d="m 84.977239,55.095165 c -1.591426,-0.519381 -2.841269,-1.625437 -3.553729,-3.144901 -0.348277,-0.742767 -0.404506,-1.06585 -0.404506,-2.324195 0,-1.342023 0.04124,-1.545291 0.504526,-2.486345 1.904672,-3.868938 7.429815,-4.261992 9.768643,-0.694933 1.9406,2.959701 0.844162,6.910284 -2.320334,8.360416 -1.073756,0.492049 -2.956601,0.628719 -3.9946,0.289958 z m 2.837111,-2.633389 c 1.655789,-0.691832 2.357366,-2.642909 1.52041,-4.228238 -1.184988,-2.244561 -4.459326,-2.194125 -5.494422,0.08463 -1.169376,2.574376 1.376511,5.228911 3.974012,4.143604 z m 5.715153,2.765451 c 0,-0.249298 0.521368,-1.268088 0.801599,-1.566381 0.291288,-0.310061 0.472315,-0.347476 1.681207,-0.347476 h 1.35477 v 0.904595 c 0,0.683267 -0.0594,0.927392 -0.242809,0.997769 -0.298426,0.114514 -3.594767,0.125052 -3.594767,0.01148 z m 25.478367,-0.231188 c -0.0921,-0.17208 -0.14634,-0.603807 -0.12053,-0.959394 l 0.0469,-0.646525 3.26193,-0.04143 3.26194,-0.04143 v 0.816618 c 0,0.44914 -0.0829,0.899511 -0.18421,1.000823 -0.13051,0.130528 -1.04602,0.184204 -3.1414,0.184204 -2.81858,0 -2.96506,-0.01472 -3.12465,-0.312871 z M 91.782284,53.189098 c -0.04224,-0.06835 0.09233,-0.466032 0.299049,-0.883739 1.781013,-3.59877 -0.435781,-7.877518 -4.490499,-8.667342 -3.926525,-0.764855 -7.718958,3.003263 -6.986525,6.941725 0.09722,0.522745 0.161215,0.965954 0.142214,0.984909 -0.03111,0.03106 -20.988069,-3.033113 -22.172716,-3.241933 l -0.494256,-0.08712 0.511384,-0.723053 c 0.808079,-1.142551 1.091542,-2.070511 1.088345,-3.562857 -0.0025,-1.142113 -0.06339,-1.433441 -0.488905,-2.336829 -0.64687,-1.373379 -1.681325,-2.45449 -2.942764,-3.075493 -0.945547,-0.465493 -1.114706,-0.497547 -2.625668,-0.497547 -1.457446,0 -1.700258,0.04186 -2.488783,0.429084 -1.196779,0.587705 -2.280921,1.603748 -2.849503,2.670515 -0.482467,0.9052 -0.913999,2.765486 -0.744174,3.208045 0.166299,0.433369 -0.160508,0.158291 -1.019684,-0.858286 -1.374662,-1.626496 -1.420789,-1.761263 -1.418593,-4.144582 0.0018,-1.837908 0.04236,-2.162202 0.359575,-2.867236 0.196717,-0.437221 0.486416,-0.911463 0.643777,-1.053871 0.157359,-0.142406 0.466464,-0.800486 0.6869,-1.462394 0.296734,-0.891013 0.537074,-1.323125 0.925705,-1.664349 0.512694,-0.45015 1.600053,-0.859448 1.960258,-0.737869 0.09925,0.0335 1.386451,-0.34214 2.86043,-0.834761 4.654204,-1.555488 7.432481,-2.037989 11.749323,-2.040493 4.469448,-0.0026 7.41389,0.527844 10.16551,1.8313 0.816305,0.386687 1.442241,0.661116 1.390966,0.609843 -0.09188,-0.09188 -4.08939,-2.335066 -6.183871,-3.470057 -0.590987,-0.320254 -1.039983,-0.585141 -0.997769,-0.58864 0.873145,-0.07236 12.005861,-1.671706 12.067838,-1.733683 0.04837,-0.04837 -0.155483,-0.731874 -0.452999,-1.518907 -0.297516,-0.787032 -1.271036,-3.359433 -2.163377,-5.716445 -0.89234,-2.357014 -1.605252,-4.297712 -1.584247,-4.312664 0.021,-0.01495 2.386788,1.376027 5.257295,3.091066 3.249536,1.941496 5.244097,3.047637 5.285334,2.931135 0.03643,-0.102915 0.801235,-2.461417 1.699576,-5.241118 2.2723,-7.0310943 2.106359,-7.0368813 4.376596,0.152641 0.917884,2.906816 1.72922,5.285119 1.802967,5.285119 0.07374,0 2.468446,-1.416064 5.321557,-3.146811 2.85311,-1.730747 5.22533,-3.146813 5.2716,-3.146813 0.0463,0 -0.94518,2.570181 -2.20323,5.711514 -1.25805,3.141332 -2.2361,5.755427 -2.17344,5.809099 0.0627,0.05367 2.32437,0.426549 5.02602,0.828613 2.70166,0.402063 5.38517,0.802144 5.96335,0.889067 l 1.05125,0.158043 -0.70757,0.401347 c -0.38916,0.220741 -1.64735,0.953959 -2.79597,1.629373 l -2.08841,1.228023 0.97721,0.03668 c 4.33309,0.162621 8.59034,0.587344 9.55195,0.952947 0.91569,0.348143 2.4197,2.343028 3.70954,4.920246 0.98799,1.974078 1.9698,4.611441 1.78537,4.795874 -0.24612,0.246119 -0.68351,0.05913 -0.80529,-0.344287 -1.24842,-4.135471 -2.27519,-6.220098 -3.94695,-8.01334 -0.37017,-0.397071 -0.89112,-0.791255 -1.15765,-0.875963 -0.91644,-0.29126 -4.6229,-0.474382 -9.60166,-0.474382 -5.87564,0 -9.03209,0.201556 -9.872743,0.630425 -1.542246,0.786795 -3.58122,4.270166 -4.492321,7.674653 -0.206836,0.772884 -0.409984,1.43916 -0.451439,1.480615 -0.04146,0.04145 -0.24907,0.03178 -0.461366,-0.0215 l -0.385991,-0.09688 0.471934,-1.34146 c 1.077413,-3.06252 2.84387,-6.230309 4.23693,-7.598095 0.647465,-0.635718 0.882608,-0.759881 1.811866,-0.956728 0.587313,-0.124405 1.27699,-0.227404 1.53261,-0.22887 0.25563,-0.0015 0.56927,-0.124714 0.697,-0.273884 0.12773,-0.149171 0.87224,-0.649975 1.65448,-1.112897 l 1.42225,-0.841677 -0.58422,-0.09888 c -0.32132,-0.05439 -1.96575,-0.256284 -3.65428,-0.448661 -1.688531,-0.192375 -3.08936,-0.362894 -3.11295,-0.378931 -0.02359,-0.01603 0.578543,-1.606654 1.338073,-3.534706 0.759531,-1.928051 1.36598,-3.520253 1.347666,-3.538225 -0.01831,-0.01797 -1.445767,0.824743 -3.172122,1.8727 -1.726353,1.047956 -3.176957,1.904541 -3.223563,1.903524 -0.0466,-10e-4 -0.568273,-1.555009 -1.15926,-3.453312 -0.590986,-1.898303 -1.111459,-3.451689 -1.156605,-3.451968 -0.04514,-2.78e-4 -0.623519,1.587077 -1.285273,3.527457 -0.661756,1.940381 -1.246505,3.500763 -1.299445,3.467516 -3.279794,-2.059791 -6.074752,-3.754453 -6.119051,-3.710153 -0.03185,0.03185 0.562929,1.567847 1.321745,3.413315 0.951762,2.314721 1.323422,3.384798 1.198322,3.450196 -0.09974,0.05213 -1.631947,0.286441 -3.404907,0.520667 -1.77296,0.234227 -3.317667,0.475053 -3.432684,0.535168 -0.133383,0.06971 0.908986,0.706084 2.878183,1.757131 1.698015,0.906305 3.087301,1.673428 3.087301,1.704715 0,0.03129 -0.587148,0.749487 -1.304776,1.595998 -0.717626,0.846511 -1.304776,1.598325 -1.304776,1.670695 0,0.07237 1.069271,1.181571 2.376156,2.464886 l 2.376158,2.333303 2.228935,1.060076 c 1.419182,0.674959 2.228935,1.144382 2.228935,1.292138 0,0.137549 0.248851,0.30662 0.611061,0.41514 0.535939,0.160572 0.599821,0.227855 0.519642,0.547312 -0.0819,0.326304 0.0052,0.405902 0.83594,0.764366 0.806341,0.347918 0.978907,0.499496 1.322393,1.16155 0.500651,0.964984 0.496184,1.218836 -0.0271,1.539941 -0.89739,0.55067 -0.883798,0.509389 -0.330501,1.00376 l 0.517044,0.461979 -0.266722,0.744115 c -0.146689,0.409262 -0.266381,0.97322 -0.265963,1.253241 4.67e-4,0.312915 -0.153311,0.711122 -0.399019,1.033263 -0.353848,0.463918 -0.380303,0.580008 -0.230255,1.010434 0.09324,0.267463 0.169524,0.545066 0.169524,0.616894 0,0.166495 -1.030661,0.172247 -1.133207,0.0063 z M 81.169599,38.313239 c -0.15111,-0.234809 -0.903039,-1.05708 -1.670949,-1.827271 -1.559611,-1.564238 -3.511615,-2.91566 -5.302158,-3.670815 -1.335256,-0.56314 -3.263091,-1.072004 -3.588385,-0.947177 -0.163192,0.06263 -0.244434,0.583448 -0.328711,2.107273 -0.06157,1.113251 -0.05347,2.073826 0.01797,2.134613 0.07146,0.06079 2.547594,0.681787 5.502527,1.380003 2.954933,0.698214 5.401388,1.297548 5.436565,1.331851 0.03518,0.03431 0.09635,0.02998 0.135915,-0.0096 0.03958,-0.03958 -0.05168,-0.264078 -0.202787,-0.498885 z M 67.968972,34.906462 c 0.0558,-0.330306 0.150436,-1.270271 0.21029,-2.088811 0.129189,-1.766723 0.264891,-1.644971 -2.146416,-1.925754 -2.070511,-0.2411 -5.295427,-0.107478 -7.287755,0.301974 -1.558723,0.320338 -3.86292,1.018502 -4.104973,1.243795 -0.07143,0.06649 0.55026,0.274865 1.381528,0.463075 0.831265,0.188208 3.687299,0.845163 6.34674,1.459899 2.65944,0.614736 4.984695,1.124153 5.167235,1.13204 0.270042,0.01163 0.350796,-0.09757 0.433351,-0.586218 z m 11.275611,-1.901271 c -0.09834,-0.0772 -1.30684,-0.749716 -2.370161,-1.318946 -0.506559,-0.271177 -0.750067,-0.368626 -0.541127,-0.216551 0.208941,0.152075 0.865166,0.66555 1.458279,1.141055 0.919112,0.736864 1.111046,0.83376 1.299505,0.656044 0.121622,-0.114691 0.190691,-0.232404 0.153504,-0.261602 z m 16.009607,19.57904 c 0.30271,-0.318985 0.380122,-0.526598 0.316801,-0.849647 -0.0989,-0.504576 0.22409,-0.925978 0.987331,-1.288159 1.513344,-0.718129 1.688445,-3.260417 0.290947,-4.224259 -0.263978,-0.182064 -0.510562,-0.355215 -0.547966,-0.384781 -0.0374,-0.02957 -0.08154,-0.318915 -0.09809,-0.642997 -0.03995,-0.782508 -0.455645,-1.626224 -0.960026,-1.948536 -0.224899,-0.143716 -0.616137,-0.48249 -0.869418,-0.752831 -0.389471,-0.415704 -0.610029,-0.508368 -1.429781,-0.600694 -0.651672,-0.07339 -0.947174,-0.169174 -0.901831,-0.292304 0.03709,-0.100722 0.140331,-0.167475 0.229426,-0.148331 0.716283,0.153911 5.991026,0.352349 11.542627,0.434238 6.48363,0.09563 17.69918,-0.120533 19.46279,-0.375124 0.80652,-0.116427 0.81595,-0.113042 1.35842,0.487399 1.10198,1.219769 1.12258,1.337587 1.12634,6.441444 l 0.003,4.566714 h -3.73148 c -3.04331,0 -3.78643,-0.04157 -4.02945,-0.225372 -0.45398,-0.343376 -19.431285,-0.348074 -19.71611,-0.0049 -0.147795,0.178083 -0.55855,0.230254 -1.8128,0.230254 h -1.621704 z m 27.59711,-1.82723 c 0.72136,-0.144275 1.7856,-1.216316 1.91952,-1.933595 0.15812,-0.846984 -0.0341,-1.586935 -0.57106,-2.198542 -0.89978,-1.024786 -2.03825,-1.268857 -3.1864,-0.683114 -1.56973,0.800817 -1.86683,2.92946 -0.58081,4.161445 0.68045,0.651857 1.42381,0.852795 2.41875,0.653806 z m -1.68574,-0.552067 c -0.885,-0.453806 -1.27489,-1.163046 -1.18766,-2.160478 0.11631,-1.330035 1.1074,-2.168706 2.42894,-2.055398 0.93232,0.07994 1.58201,0.560377 1.9064,1.409763 0.45344,1.187323 -0.0886,2.452403 -1.26068,2.942112 -0.69957,0.292299 -1.10933,0.262767 -1.887,-0.136004 z m 1.95364,-0.421657 c 1.11199,-0.677988 1.23297,-2.048001 0.25655,-2.905309 -1.64453,-1.443912 -3.97949,0.776246 -2.5736,2.447056 0.68614,0.815432 1.47526,0.971499 2.31705,0.458253 z m -26.980146,0.481139 c 0,-0.07281 0.20879,-0.395123 0.463977,-0.716235 0.774615,-0.974725 0.791102,-1.647364 0.06163,-2.514293 -0.217528,-0.258517 -0.37297,-0.586666 -0.345428,-0.729222 0.04062,-0.210275 0.143525,-0.165732 0.545215,0.236005 1.000432,1.000551 0.981978,2.482448 -0.04211,3.38161 -0.57006,0.500518 -0.683283,0.557212 -0.683284,0.342135 z m -43.236038,-0.64617 c -1.86921,-0.184308 -3.613272,-1.48393 -4.472194,-3.332542 -0.344833,-0.742166 -0.408378,-1.09113 -0.411397,-2.259268 -0.0047,-1.816574 0.472916,-2.926748 1.779575,-4.136482 2.017033,-1.867419 4.916481,-2.048858 7.22094,-0.451865 1.806574,1.251957 2.697708,3.964876 2.03519,6.195816 -0.314044,1.0575 -0.768003,1.763248 -1.665437,2.589168 -1.237488,1.138876 -2.645515,1.576715 -4.486677,1.395173 z m 2.098394,-2.82936 c 1.049893,-0.542921 1.687364,-1.595374 1.687364,-2.785806 0,-2.608321 -3.067167,-4.022608 -5.01496,-2.312423 -1.428933,1.254619 -1.46795,3.315873 -0.0873,4.612088 0.895561,0.840793 2.333284,1.045466 3.414898,0.486141 z M 99.132363,36.735042 c 1.433387,-1.435253 2.640707,-2.609551 2.682917,-2.609551 0.0422,0 -1.09602,1.174298 -2.529413,2.609551 -1.433391,1.435254 -2.640703,2.609552 -2.682917,2.609552 -0.04221,0 1.096023,-1.174298 2.529413,-2.609552 z m 13.508267,2.302545 c 0.15281,-0.168853 0.31238,-0.307005 0.35459,-0.307005 0.0422,0 -0.0483,0.138152 -0.20108,0.307005 -0.15281,0.168853 -0.31238,0.307007 -0.35459,0.307007 -0.0422,0 0.0483,-0.138152 0.20108,-0.307007 z m -23.265572,-0.08864 c -0.163213,-0.196659 -0.165101,-0.376857 -0.01001,-0.959394 0.39821,-1.496167 0.754381,-1.715024 2.79103,-1.715024 h 1.3696 l -0.391436,0.882642 c -0.219096,0.494037 -0.360373,1.047318 -0.320881,1.256671 0.136533,0.72378 0.0223,0.777243 -1.660736,0.777243 -1.248514,0 -1.618378,-0.05038 -1.777521,-0.242138 z M 123.4626,38.581454 c 0,-0.335299 -0.16889,-0.991525 -0.37531,-1.458278 l -0.37531,-0.848644 h 1.5148 c 1.39744,0 1.55063,0.03014 1.97728,0.389156 0.33232,0.279628 0.5145,0.621549 0.64727,1.21485 0.28954,1.293785 0.2653,1.31255 -1.69539,1.31255 h -1.69334 z m -10.28471,-0.06233 c 0,-0.03188 0.12089,-0.152759 0.26863,-0.26863 0.24347,-0.190937 0.2489,-0.185509 0.058,0.05795 -0.20053,0.255698 -0.32658,0.337013 -0.32658,0.210674 z m 1.07452,-1.093316 c 0.28641,-0.295493 0.55528,-0.537261 0.59749,-0.537261 0.0422,0 -0.15758,0.241768 -0.44398,0.537261 -0.28641,0.295492 -0.55527,0.53726 -0.59749,0.53726 -0.0422,0 0.15758,-0.241768 0.44398,-0.53726 z m -14.19903,-0.07674 c 0.15281,-0.168853 0.31238,-0.307007 0.35459,-0.307007 0.0422,0 -0.0483,0.138152 -0.20108,0.307007 -0.15282,0.168853 -0.312381,0.307006 -0.354593,0.307006 -0.04221,0 0.04828,-0.138152 0.201083,-0.307006 z m 15.57415,-1.266401 c 0.63611,-0.677745 0.77393,-0.799612 0.77393,-0.684348 0,0.02464 -0.32811,0.352748 -0.72914,0.72914 l -0.72914,0.684347 z m 1.15769,-1.189648 c 0.15281,-0.168853 0.31237,-0.307005 0.35458,-0.307005 0.0422,0 -0.0483,0.138152 -0.20108,0.307005 -0.15281,0.168853 -0.31238,0.307007 -0.35459,0.307007 -0.0422,0 0.0483,-0.138153 0.20109,-0.307007 z"
       id="path13"
       sodipodi:nodetypes="sssssssssssssscsssscscccsssccscsssscscssssssscsssssscssssssssssssssssssscsscsssssssssssscsssssscssssssssssssssssssssscsssssssscssssssscssssssssccssssssscssssssscsssssssssssssscssssccsssssssssssssssssssssssssscsssssssssssssssssssssccscsssccsscsssscssssssssssssssssssscssssss"
       inkscape:export-filename="colision.svg"
       inkscape:export-xdpi="96"
       inkscape:export-ydpi="96" /></g></svg>
