<?xml version="1.0" encoding="UTF-8" standalone="no"?>
<!-- Created with Inkscape (http://www.inkscape.org/) -->

<svg
   version="1.1"
   id="svg1"
   width="43.594769"
   height="45.590126"
   viewBox="0 0 43.594768 45.590126"
   sodipodi:docname="monitoreo.svg"
   inkscape:export-filename="combustible.svg"
   inkscape:export-xdpi="96"
   inkscape:export-ydpi="96"
   xml:space="preserve"
   xmlns:inkscape="http://www.inkscape.org/namespaces/inkscape"
   xmlns:sodipodi="http://sodipodi.sourceforge.net/DTD/sodipodi-0.dtd"
   xmlns="http://www.w3.org/2000/svg"
   xmlns:svg="http://www.w3.org/2000/svg"><defs
     id="defs1" /><sodipodi:namedview
     id="namedview1"
     pagecolor="#ffffff"
     bordercolor="#000000"
     borderopacity="0.25"
     inkscape:showpageshadow="2"
     inkscape:pageopacity="0.0"
     inkscape:pagecheckerboard="0"
     inkscape:deskcolor="#d1d1d1"
     inkscape:export-bgcolor="#ffffff00" /><g
     inkscape:groupmode="layer"
     inkscape:label="Image"
     id="g1"
     transform="translate(-40.279636,-10.035302)"><path
       style="fill:none;stroke:#ffffff;stroke-width:1.45453;stroke-dasharray:none;stroke-opacity:1"
       d="m 41.056607,54.531602 c -0.07755,-0.07753 -0.05998,-1.850722 0.02273,-2.293846 0.229505,-1.229724 1.236316,-2.234296 2.474646,-2.46914 0.531293,-0.100762 23.015323,-0.100762 23.546613,0 1.221196,0.231594 2.220075,1.212881 2.472544,2.428974 0.04394,0.211421 0.07062,0.825359 0.05934,1.364305 l -0.0204,0.979903 -14.252465,0.02016 c -7.838851,0.01109 -14.275201,-0.0026 -14.302997,-0.03037 z m 35.147646,-0.02747 c -0.917562,-0.142405 -1.920885,-0.675617 -2.534378,-1.346869 -0.455397,-0.498283 -0.68466,-0.891715 -0.93913,-1.61162 l -0.203272,-0.575042 -0.03648,-4.445774 C 72.454503,42.08397 72.454313,42.078715 72.290055,41.771334 72.032163,41.288715 71.714117,40.972351 71.265174,40.75189 70.858542,40.552201 70.823881,40.54812 69.338796,40.525046 L 67.8265,40.501546 V 39.754393 39.00724 l 1.293646,-0.0089 c 1.563911,-0.01077 2.083482,0.05996 2.751282,0.374918 0.890237,0.419882 1.593248,1.188325 1.947455,2.128706 0.15993,0.424606 0.163098,0.502049 0.200742,4.91362 l 0.03825,4.482213 0.231352,0.488358 c 1.038073,2.191225 4.086186,2.190113 5.113745,-0.0019 l 0.193896,-0.413615 0.01932,-9.201292 0.01932,-9.201292 h 0.764164 0.764154 v 9.023922 c 0,6.168223 -0.02501,9.160779 -0.07905,9.456378 -0.04345,0.237851 -0.20694,0.706504 -0.3633,1.041456 -0.5176,1.108798 -1.675615,2.05901 -2.837358,2.328193 -0.509067,0.11795 -1.235127,0.155202 -1.679872,0.08617 z M 43.938978,30.545669 43.957771,12.416273 44.161117,12.00219 c 0.237049,-0.48272 0.586784,-0.814064 1.114022,-1.055441 l 0.37656,-0.172395 9.757298,0.01926 9.757297,0.01926 0.390558,0.216323 c 0.486507,0.269469 0.840005,0.675663 1.030048,1.183598 0.145089,0.387793 0.146352,0.545649 0.146352,18.423756 v 18.032612 l -11.406531,0.0029 -11.406529,0.0029 z m 12.767769,8.700721 c 1.237702,-0.611706 1.884382,-1.653014 1.884382,-3.0343 0,-0.892489 -0.135555,-1.269216 -0.843862,-2.345228 -0.298733,-0.453816 -0.961572,-1.572375 -1.472977,-2.485688 -0.511404,-0.913313 -0.943002,-1.647393 -0.959106,-1.631288 -0.01611,0.0161 -0.486448,0.837276 -1.045211,1.824825 -0.558763,0.98755 -1.209295,2.082395 -1.445624,2.432986 -0.686774,1.018806 -0.892974,1.785398 -0.741245,2.755717 0.09602,0.614051 0.471428,1.437208 0.843037,1.848534 0.267053,0.295596 1.219329,0.822716 1.63589,0.905528 0.100207,0.01994 0.501966,0.02728 0.892785,0.01635 0.651116,-0.01822 0.755883,-0.04225 1.251931,-0.287427 z m 7.127526,-17.88391 c 0.0089,-2.234729 0.0047,-4.637087 -0.0092,-5.338571 -0.02782,-1.390815 -0.07675,-1.587737 -0.492322,-1.982156 -0.468204,-0.444376 -0.06292,-0.423086 -8.021302,-0.421334 -6.923042,0.0016 -7.286272,0.0079 -7.563797,0.136571 -0.354854,0.164291 -0.647567,0.465441 -0.794652,0.817553 -0.113668,0.272131 -0.129979,1.418965 -0.11986,8.427769 l 0.0035,2.423312 h 8.490696 8.4907 z m 15.210349,9.899274 c -0.117167,-0.117164 -0.213041,-0.276292 -0.213041,-0.353605 0,-0.123695 -0.07219,-0.146183 -0.601272,-0.187373 -0.330697,-0.02574 -1.132387,-0.04701 -1.781532,-0.04725 -1.143206,-4.24e-4 -1.186675,-0.006 -1.384748,-0.17676 l -0.204488,-0.176325 0.02285,-4.105466 c 0.02599,-4.661269 0.0078,-4.499335 0.618926,-5.563095 0.346057,-0.602516 0.376806,-0.694102 0.377639,-1.12461 l 8.93e-4,-0.468679 1.12966,-0.894584 c 0.62132,-0.492019 1.167697,-0.896052 1.214177,-0.897849 0.04649,-0.0019 0.379473,0.365694 0.739987,0.816649 0.868541,1.086436 0.950252,1.157616 1.375627,1.19835 0.751001,0.07192 0.685189,-0.01402 1.411651,1.844453 0.27898,0.71373 0.44352,1.033932 0.599203,1.166104 0.514706,0.436967 0.628813,0.578449 0.71072,0.881281 0.118285,0.437334 0.04933,1.095197 -0.148229,1.414919 -0.08808,0.142548 -0.279872,0.320269 -0.426149,0.394926 -0.586168,0.29917 -0.553095,0.115486 -0.593926,3.299103 L 81.85618,31.123214 81.651692,31.299 c -0.196494,0.168918 -0.247271,0.175787 -1.299251,0.175787 h -1.094764 z m -0.991044,-1.387772 c 0.586727,-0.118829 1.14607,-0.268019 1.242993,-0.331521 0.320615,-0.210077 0.345194,-0.394433 0.322008,-2.415035 -0.02138,-1.865987 -0.02442,-1.899004 -0.197368,-2.151196 -0.202663,-0.295534 -0.534626,-0.539006 -0.835527,-0.612797 l -0.209451,-0.05137 0.201595,0.34399 c 0.192277,0.328092 0.199564,0.374886 0.157811,1.01229 -0.06915,1.055543 -0.709651,3.341745 -0.94931,3.388475 -0.16302,0.03179 -0.156046,-0.103101 0.05649,-1.092735 0.241258,-1.123428 0.348568,-2.147427 0.259021,-2.471735 -0.119462,-0.432667 -0.488048,-0.730274 -1.030463,-0.832031 -0.234147,-0.04393 -0.291377,-0.02012 -0.554399,0.230616 -0.357984,0.341267 -0.500328,0.771052 -0.611571,1.846554 -0.0969,0.937199 -0.02697,2.558219 0.124102,2.876647 0.130947,0.275957 0.432701,0.471391 0.731807,0.473963 0.124023,0.0011 0.705541,-0.0953 1.292268,-0.214123 z m -3.284673,-13.58486 -1.256724,-1.918171 -1.694064,-1.195983 c -0.931735,-0.65779 -1.704147,-1.248548 -1.716466,-1.312798 -0.02305,-0.120321 0.434104,-0.945026 0.600379,-1.083023 0.07032,-0.05839 0.594015,0.278235 2.120342,1.36286 l 2.026949,1.440373 1.225877,1.820376 c 0.674225,1.001207 1.223691,1.837523 1.221013,1.858479 -0.0069,0.05103 -1.073097,0.87559 -1.183605,0.915025 -0.04963,0.01771 -0.626596,-0.792613 -1.343701,-1.887138 z"
       id="path2" /></g></svg>
