<?xml version="1.0" encoding="UTF-8" standalone="no"?>
<!-- Created with Inkscape (http://www.inkscape.org/) -->

<svg
   version="1.1"
   id="svg1"
   width="103.38"
   height="59.299274"
   viewBox="0 0 103.38 59.299274"
   sodipodi:docname="monitoreo.svg"
   inkscape:export-filename="combustible.svg"
   inkscape:export-xdpi="96"
   inkscape:export-ydpi="96"
   xml:space="preserve"
   xmlns:inkscape="http://www.inkscape.org/namespaces/inkscape"
   xmlns:sodipodi="http://sodipodi.sourceforge.net/DTD/sodipodi-0.dtd"
   xmlns="http://www.w3.org/2000/svg"
   xmlns:svg="http://www.w3.org/2000/svg"><defs
     id="defs1" /><sodipodi:namedview
     id="namedview1"
     pagecolor="#ffffff"
     bordercolor="#000000"
     borderopacity="0.25"
     inkscape:showpageshadow="2"
     inkscape:pageopacity="0.0"
     inkscape:pagecheckerboard="0"
     inkscape:deskcolor="#d1d1d1"
     inkscape:export-bgcolor="#ffffff00" /><g
     inkscape:groupmode="layer"
     inkscape:label="Image"
     id="g1"
     transform="translate(-47.754318,-0.32536961)"><path
       style="fill:none;stroke:#ffffff;stroke-width:1.455;stroke-dasharray:none;stroke-opacity:1"
       d="m 120.27641,58.687051 c -1.26338,-0.528288 -1.8762,-1.584104 -2.01707,-3.47515 l -0.13616,-1.828008 -2.10574,-0.680367 -2.10574,-0.680367 -4.39584,1.880367 c -5.04373,2.157511 -5.81095,2.295947 -5.66071,1.021409 0.10349,-0.877875 0.49059,-1.084378 7.05506,-3.763651 l 1.1938,-0.487246 -0.8017,-1.18137 c -0.87196,-1.284909 -0.8777,-1.643375 -0.0346,-2.165913 0.45857,-0.284227 0.7534,-0.102769 1.72397,1.061058 1.06167,1.273059 3.75303,2.904735 4.80476,2.912954 0.22,0.0017 0.39966,-0.320874 0.39924,-0.716874 -5.8e-4,-0.54778 -0.42259,-0.940415 -1.76431,-1.64149 -1.19184,-0.622755 -1.82649,-1.17222 -1.95768,-1.694902 -0.29525,-1.176376 0.0419,-1.219916 1.38154,-0.178403 2.55634,1.987474 2.34121,3.453082 2.34121,-15.949793 V 13.834803 l -0.78545,-0.785454 c -0.94198,-0.941981 -2.0716,-1.005524 -3.0991,-0.174329 -0.741,0.59944 -0.75743,0.732521 -0.85924,6.959999 l -0.1038,6.348875 -1.4962,3.36 -1.49621,3.36 -4.48,2.306299 c -4.93695,2.541535 -5.919999,2.79657 -5.919999,1.535837 0,-0.705002 0.513059,-1.054882 4.408189,-3.00616 l 4.40818,-2.208297 0.84934,-1.87384 c 1.87667,-4.14036 1.85429,-4.019995 1.85429,-9.971887 0,-5.006374 0.0714,-5.767406 0.65415,-6.971171 0.96207,-1.98738 3.64484,-3.0039465 5.42016,-2.053827 0.55848,0.29889 0.59831,0.09866 0.69896,-3.5136055 0.10294,-3.694499 0.13824,-3.862043 0.99367,-4.716953 l 0.88693,-0.886394 11.75307,-0.09604 c 6.46418,-0.05282 12.23715,-0.0073 12.82882,0.101207 0.59166,0.108488 1.41966,0.541162 1.84,0.961498 0.70313,0.703132 0.76424,1.018568 0.76424,3.944556 0,2.531744 0.0979,3.217871 0.48,3.364502 0.31768,0.121904 0.48,0.6238435 0.48,1.4842785 0,0.860436 -0.16232,1.362375 -0.48,1.48428 -0.264,0.101306 -0.48,0.44138 -0.48,0.75572 0,0.31434 0.216,0.654414 0.48,0.755721 0.31768,0.121904 0.48,0.623844 0.48,1.484279 0,0.860435 -0.16232,1.362375 -0.48,1.48428 -0.27361,0.104994 -0.48,0.582253 -0.48,1.109957 0,0.755644 0.13676,0.925763 0.74422,0.925763 0.40932,0 1.0909,0.36902 1.51461,0.820045 0.67776,0.721436 0.765,1.096613 0.72553,3.12 -0.0247,1.264975 -0.0406,2.947955 -0.0354,3.739955 0.005,0.792 0.006,2.268 0.002,3.28 -0.0114,2.906523 -0.009,4.580516 0.011,6.56 0.01,1.012 -0.0123,2.343999 -0.0497,2.959999 -0.0374,0.616 0.0198,2.056 0.12705,3.2 0.24593,2.623104 -0.4187,4.160764 -1.99959,4.626175 l -1.04,0.306175 v 4.408776 4.408777 l -0.93347,1.045048 -0.93347,1.045049 -12.26653,0.06539 c -6.74659,0.03596 -12.55453,-0.05504 -12.90653,-0.202231 z m 24.8,-2.263158 c 0.55467,-0.554667 0.64,-1.066667 0.64,-3.84 v -3.2 h -12.8 -12.8 v 3.254803 c 0,2.579565 0.10987,3.376207 0.5296,3.84 0.49455,0.546481 1.29905,0.585197 12.16,0.585197 11.20374,0 11.65388,-0.02348 12.2704,-0.64 z m -14.40724,-1.52 c -0.52841,-0.67032 -0.65543,-1.167009 -0.53307,-2.084543 0.29859,-2.23914 2.716,-3.213289 4.49716,-1.812231 0.70469,0.55431 0.84315,0.919185 0.84315,2.221854 0,1.886494 -0.72417,2.55492 -2.76797,2.55492 -1.0864,0 -1.4792,-0.169501 -2.03927,-0.88 z m 3.37601,-0.72969 c 0.84269,-0.931155 0.32231,-2.350737 -0.91401,-2.493432 -1.1574,-0.133587 -1.81476,0.433805 -1.81476,1.566404 0,1.513048 1.68147,2.084283 2.72877,0.927028 z m 11.67123,-6.19831 c 0,-0.0704 -0.504,-0.632 -1.12,-1.248 -1.02544,-1.025446 -1.11983,-1.278039 -1.11803,-2.992 0.001,-1.0296 0.21566,-2.281701 0.47682,-2.782447 0.42004,-0.805359 0.41981,-0.989022 -0.002,-1.591202 -0.60775,-0.867685 -0.6234,-3.806673 -0.0264,-4.961108 0.38288,-0.740402 0.38458,-0.989879 0.0113,-1.664109 -0.57533,-1.039297 -0.58186,-3.952618 -0.0113,-5.055891 0.38288,-0.740401 0.38458,-0.989878 0.0113,-1.664108 -0.24148,-0.436224 -0.44416,-1.635534 -0.4504,-2.665134 -0.0104,-1.719624 0.0798,-1.963165 1.10866,-2.992 l 1.12,-1.12 v -5.408 -5.4079995 h -12.8 -12.8 V 28.263894 48.103893 h 12.8 c 7.04,0 12.8,-0.0576 12.8,-0.128 z m 2.496,-2.496 c 0.47105,-0.471044 0.50549,-2.951065 0.0527,-3.797037 -0.76718,-1.433502 -2.90748,-0.20688 -2.96146,1.697236 -0.0544,1.918154 1.77195,3.236572 2.90872,2.099801 z m -0.996,-0.462666 c -0.121,-0.121 -0.22,-0.844 -0.22,-1.606667 0,-1.185658 0.0953,-1.386667 0.65754,-1.386667 0.58346,0 0.64654,0.168402 0.56,1.494986 -0.0914,1.401341 -0.49235,2.00354 -0.99754,1.498348 z m 0.996,-6.257333 c 0.47105,-0.471045 0.50549,-2.951065 0.0527,-3.797038 -0.76718,-1.433501 -2.90748,-0.20688 -2.96146,1.697236 -0.0544,1.918154 1.77195,3.236573 2.90872,2.099802 z m -1.216,-1.856 c 0,-1.386667 0.0853,-1.6 0.64,-1.6 0.55467,0 0.64,0.213333 0.64,1.6 0,1.386666 -0.0853,1.6 -0.64,1.6 -0.55466,0 -0.64,-0.213334 -0.64,-1.6 z m 1.25937,-4.935138 c 0.54054,-0.651313 0.3016,-3.403496 -0.32984,-3.799205 -0.86416,-0.541546 -2.11149,-0.0073 -2.48508,1.064387 -0.36212,1.038786 -0.0202,2.483439 0.69557,2.938543 0.61613,0.391767 1.71261,0.286366 2.11935,-0.203725 z m -1.25937,-1.784862 c 0,-1.386667 0.0853,-1.6 0.64,-1.6 0.55467,0 0.64,0.213333 0.64,1.6 0,1.386666 -0.0853,1.6 -0.64,1.6 -0.55466,0 -0.64,-0.213334 -0.64,-1.6 z m 1.26874,-4.778963 c 0.45275,-0.845972 0.41831,-3.325993 -0.0527,-3.797037 -1.13677,-1.136771 -2.96309,0.181647 -2.90872,2.099801 0.054,1.904116 2.19428,3.130738 2.96146,1.697236 z m -1.20627,-1.858159 c 0.0735,-1.143138 0.23558,-1.543336 0.65753,-1.623463 0.47372,-0.08996 0.56,0.143787 0.56,1.517121 0,1.424561 -0.0806,1.623464 -0.65753,1.623464 -0.58463,0 -0.64672,-0.168204 -0.56,-1.517122 z M 145.71641,6.0238955 c 0,-1.013334 -0.18963,-1.62963 -0.64,-2.08 -0.61641,-0.616409 -1.06666,-0.64 -12.2148,-0.64 -13.25326,0 -12.7452,-0.104025 -12.7452,2.609596 v 1.550404 h 12.8 12.8 z m -12.72,0.244693 c -1.9584,-0.08203 -2.64,-0.222942 -2.64,-0.545796 0,-0.326835 0.73714,-0.465475 2.96,-0.556715 2.84505,-0.116778 3.57711,0.0719 3.32828,0.857818 -0.12012,0.379407 -0.24002,0.387449 -3.64828,0.244693 z m -0.72,-2.004693 c 0,-0.426667 0.21334,-0.64 0.64,-0.64 0.42667,0 0.64,0.213333 0.64,0.64 0,0.426666 -0.21333,0.64 -0.64,0.64 -0.42666,0 -0.64,-0.213334 -0.64,-0.64 z M 52.571793,57.408508 51.636409,56.473124 v -4.440331 -4.440331 l -1.14943,-0.415639 c -1.586411,-0.573654 -2.192687,-2.060618 -1.901083,-4.662635 0.118979,-1.061662 0.190832,-2.434295 0.159673,-3.050295 -0.03116,-0.615999 -0.0521,-2.019999 -0.04654,-3.119999 0.01392,-2.754056 0.01271,-4.225579 -0.0054,-6.56 -0.0085,-1.1 0.02131,-2.432 0.06633,-2.96 0.04502,-0.528 -0.02785,-1.702825 -0.161942,-2.610722 -0.452378,-3.062932 0.474934,-5.229278 2.238409,-5.229278 0.645926,0 0.8,-0.158476 0.8,-0.822857 0,-0.452571 -0.216,-1.038857 -0.48,-1.302857 -0.619013,-0.619013 -0.619013,-2.489558 0,-3.108571 0.610194,-0.610194 0.610194,-1.047282 0,-1.281435 -0.638943,-0.245185 -0.638943,-2.5596215 0,-3.1985645 0.356709,-0.356709 0.48,-1.231942 0.48,-3.407473 0,-2.808961 0.03787,-2.965339 0.935384,-3.862857 l 0.935385,-0.935384 h 12.375243 c 15.581707,0 14.873989,-0.27956101 14.873989,5.875476 v 3.2853615 l 1.898747,-0.137343 c 1.557376,-0.1126505 2.068071,-0.01677 2.840548,0.533279 1.752177,1.24766 1.980705,2.244066 1.980705,8.636087 v 5.776139 l 1.154055,2.6555 c 0.63473,1.460524 1.357095,2.871499 1.605255,3.135499 0.248161,0.264 2.284836,1.420637 4.525944,2.570305 3.17239,1.627405 4.09743,2.247785 4.17719,2.801431 0.0593,0.411744 -0.0994,0.788568 -0.37693,0.895077 -0.26365,0.101174 -2.56754,-0.86605 -5.119759,-2.149385 l -4.64039,-2.333336 -1.542683,-3.212046 -1.542682,-3.212046 -0.16,-6.447334 c -0.142885,-5.757678 -0.225207,-6.519288 -0.769596,-7.12 -0.823968,-0.909217 -2.518022,-0.895338 -3.377938,0.02767 -0.640035,0.686997 -0.652466,1.031847 -0.652466,18.100475 v 17.400134 l 1.320042,-0.740475 c 0.726023,-0.407261 1.389429,-0.920475 1.474236,-1.140475 0.242585,-0.629294 1.045722,-0.466816 1.045722,0.211554 0,0.783095 -1.619858,2.151673 -2.872334,2.426763 -0.803,0.176368 -0.967666,0.368965 -0.967666,1.131803 v 0.919268 l 1.416825,-0.426401 c 1.711278,-0.515019 3.124404,-1.480778 4.032238,-2.755714 1.388393,-1.949818 2.802578,-0.722565 1.476477,1.281309 l -0.772963,1.168025 4.043712,1.741696 c 3.309868,1.425618 4.062305,1.87262 4.146155,2.463128 0.0601,0.423454 -0.0976,0.798209 -0.38197,0.907318 -0.266431,0.102239 -2.562466,-0.696468 -5.102301,-1.774902 -4.577202,-1.943518 -4.628806,-1.956684 -5.858027,-1.494592 -0.68208,0.25641 -1.636146,0.553216 -2.120146,0.659569 -0.781687,0.171766 -0.88,0.336836 -0.88,1.477551 0,1.612971 -0.708311,3.346407 -1.551872,3.797868 -0.431224,0.230784 -4.811154,0.345757 -13.171706,0.345757 H 53.507178 Z M 78.19641,56.103893 c 0.55873,-0.55873 0.64,-1.066667 0.64,-4 v -3.36 h -12.8 -12.800001 v 3.214546 c 0,2.986307 0.05577,3.270313 0.785454,3.999999 l 0.785455,0.785455 h 11.374547 c 10.947879,0 11.398552,-0.02401 12.014545,-0.64 z M 64.17675,54.811427 c -0.516507,-0.481198 -0.70034,-1.023909 -0.70034,-2.067534 0,-1.815685 0.876016,-2.72 2.634885,-2.72 2.526131,0 3.781367,2.892839 2.019661,4.654545 -1.011855,1.011855 -2.941205,1.076744 -3.954206,0.132989 z m 2.748458,-0.805679 c 0.397119,-0.278153 0.711202,-0.835417 0.711202,-1.261855 0,-0.685448 -1.020337,-1.76 -1.671202,-1.76 -0.433897,0 -1.528798,1.260484 -1.528798,1.76 0,0.499516 1.094901,1.76 1.528798,1.76 0.136839,0 0.568839,-0.224165 0.96,-0.498145 z M 78.83641,27.943894 V 8.1038955 h -12.8 -12.800001 v 5.4287405 c 0,5.091821 0.03951,5.449888 0.636688,5.769486 0.350178,0.187409 0.854178,0.761325 1.12,1.275367 0.624709,1.208055 0.628493,4.136725 0.0065,5.024756 -0.421783,0.602179 -0.422011,0.785842 -0.002,1.591202 0.632869,1.213428 0.621499,4.244298 -0.01935,5.159245 -0.450861,0.643693 -0.450861,0.77871 0,1.422404 0.667748,0.953344 0.67131,4.339166 0.0056,5.289652 -0.445613,0.636202 -0.442062,0.780361 0.03724,1.511864 0.402175,0.613796 0.497146,1.321703 0.394205,2.938358 -0.12268,1.926656 -0.233036,2.211086 -1.157236,2.982642 -0.561893,0.46909 -1.021624,0.950403 -1.021624,1.069586 0,0.119182 5.76,0.216695 12.800001,0.216695 h 12.8 z M 52.944958,44.945122 c 1.470034,-1.190361 0.619436,-4.201229 -1.186886,-4.201229 -0.902577,0 -1.401663,0.854562 -1.401663,2.4 0,2.269128 1.08142,3.021628 2.588549,1.801229 z m -2.129704,-0.460966 c -0.350326,-0.912936 -0.0048,-2.940263 0.501155,-2.940263 0.361582,0 0.48,0.388149 0.48,1.573334 0,1.54953 -0.593689,2.376648 -0.981155,1.366929 z m 2.129704,-6.259033 c 1.521142,-1.231747 0.579143,-4.201229 -1.332741,-4.201229 -0.766061,0 -1.255808,0.935965 -1.255808,2.4 0,2.269127 1.08142,3.021628 2.588549,1.801229 z m -2.129704,-0.460967 c -0.350326,-0.912936 -0.0048,-2.940262 0.501155,-2.940262 0.361582,0 0.48,0.388148 0.48,1.573333 0,1.54953 -0.593689,2.376648 -0.981155,1.366929 z m 2.274559,-6.315074 c 0.831436,-0.918726 0.735463,-2.833579 -0.179138,-3.574178 -0.919605,-0.74465 -1.809088,-0.725463 -2.223007,0.04795 -0.452751,0.845972 -0.418303,3.325993 0.05274,3.797037 0.585903,0.585903 1.689178,0.45873 2.349404,-0.270812 z m -2.193404,-0.191855 c -0.121,-0.121 -0.22,-0.844 -0.22,-1.606667 0,-1.185658 0.09531,-1.386666 0.657533,-1.386666 0.583466,0 0.646547,0.168401 0.56,1.494986 -0.09142,1.40134 -0.492341,2.003539 -0.997533,1.498347 z m 2.193404,-6.528145 c 0.831436,-0.918726 0.735463,-2.833578 -0.179138,-3.574178 -0.919605,-0.74465 -1.809088,-0.725463 -2.223007,0.04795 -0.452751,0.845972 -0.418303,3.325993 0.05274,3.797037 0.585903,0.585903 1.689178,0.45873 2.349404,-0.270812 z m -2.193404,-0.191855 c -0.121,-0.121 -0.22,-0.844 -0.22,-1.606666 0,-1.185659 0.09531,-1.386667 0.657533,-1.386667 0.583466,0 0.646547,0.168401 0.56,1.494986 -0.09142,1.40134 -0.492341,2.003539 -0.997533,1.498347 z M 78.83641,5.5667525 c 0,-2.54321 -0.102666,-2.582857 -6.688265,-2.582857 -5.663635,0 -5.682467,0.0024 -5.657143,0.710013 0.01617,0.451812 -0.194018,0.754309 -0.577979,0.831819 -0.496572,0.100243 -0.575238,-0.02545 -0.444375,-0.710013 l 0.159012,-0.831819 h -5.610429 c -6.574713,0 -6.780822,0.07932 -6.780822,2.609596 v 1.550404 h 12.800001 12.8 z m -16.490025,-0.03908 c -0.414467,-0.670622 0.323189,-0.824986 3.305881,-0.691799 2.049226,0.0915 2.937949,0.247336 2.854115,0.50045 -0.167146,0.50466 -5.857122,0.681409 -6.159996,0.191349 z M 105.21918,40.076008 c -0.29218,-0.472756 0.007,-0.684579 2.38825,-1.691129 1.42961,-0.604281 2.1526,-0.765369 2.38629,-0.531682 0.47103,0.471034 -0.23068,1.039248 -2.31998,1.878617 -1.97514,0.793504 -2.16078,0.819536 -2.45456,0.344194 z M 90.43641,38.963913 c -1.615675,-0.738155 -2.008308,-1.179343 -1.389761,-1.561626 0.302414,-0.186902 3.732265,0.98727 4.429761,1.51648 1.420361,1.077665 -0.710747,1.109314 -3.04,0.04515 z m 11.44,0.07939 c 0,-0.479685 7.59898,-4.14725 8.03479,-3.877904 0.78138,0.482917 -0.0252,1.12625 -3.31479,2.643918 -3.68914,1.702001 -4.72,1.971506 -4.72,1.233986 z m -9.52,-1.662925 c -3.415008,-1.629232 -4.134,-2.211654 -3.18148,-2.57717 0.614365,-0.235754 7.901481,3.351008 7.901481,3.889156 0,0.750317 -0.95178,0.485759 -4.720001,-1.311986 z m 24.56,-15.036484 c 0,-4.195555 0.074,-4.96 0.48,-4.96 0.40602,0 0.48,0.764445 0.48,4.96 0,4.195555 -0.074,4.96 -0.48,4.96 -0.40602,0 -0.48,-0.764445 -0.48,-4.96 z m -35.84,-0.32 c 0,-4.195555 0.07398,-4.96 0.48,-4.96 0.406022,0 0.48,0.764445 0.48,4.96 0,4.195555 -0.07398,4.96 -0.48,4.96 -0.406021,0 -0.48,-0.764445 -0.48,-4.96 z"
       id="path1-1" /></g></svg>
