<?xml version="1.0" encoding="UTF-8" standalone="no"?>
<!-- Created with Inkscape (http://www.inkscape.org/) -->

<svg
   version="1.1"
   id="svg1"
   width="49.491261"
   height="47.449844"
   viewBox="0 0 49.49126 47.449844"
   sodipodi:docname="monitoreo.svg"
   inkscape:export-filename="combustible.svg"
   inkscape:export-xdpi="96"
   inkscape:export-ydpi="96"
   xml:space="preserve"
   xmlns:inkscape="http://www.inkscape.org/namespaces/inkscape"
   xmlns:sodipodi="http://sodipodi.sourceforge.net/DTD/sodipodi-0.dtd"
   xmlns="http://www.w3.org/2000/svg"
   xmlns:svg="http://www.w3.org/2000/svg"><defs
     id="defs1" /><sodipodi:namedview
     id="namedview1"
     pagecolor="#ffffff"
     bordercolor="#000000"
     borderopacity="0.25"
     inkscape:showpageshadow="2"
     inkscape:pageopacity="0.0"
     inkscape:pagecheckerboard="0"
     inkscape:deskcolor="#d1d1d1"
     inkscape:export-bgcolor="#ffffff00" /><g
     inkscape:groupmode="layer"
     inkscape:label="Image"
     id="g1"
     transform="translate(-35.101991,-18.331226)"><path
       style="fill:none;stroke:#ffffff;stroke-width:1.45;stroke-dasharray:none;stroke-opacity:1"
       d="m 47.956641,61.123351 -7.531216,-3.932307 -2.298482,-7.320328 -2.298482,-7.320328 -7.06e-4,-2.151987 -7.06e-4,-2.151987 3.776267,-7.221711 c 2.076947,-3.971941 3.787959,-7.234002 3.802249,-7.249024 0.01429,-0.01502 3.392264,-1.082574 7.50661,-2.372336 l 7.480629,-2.345023 1.88841,-10e-4 1.88841,-0.001 6.916277,3.610747 c 3.803953,1.985911 7.112005,3.712956 7.351226,3.837879 l 0.434947,0.227132 2.477579,7.894217 2.477579,7.894217 -9.2e-5,1.239006 -9.1e-5,1.239006 -3.956037,7.565682 c -2.175821,4.161124 -3.966429,7.57671 -3.979131,7.590189 -0.0127,0.01348 -3.525404,1.121868 -7.806007,2.463085 l -7.782913,2.438578 -1.407553,-1.64e-4 -1.407552,-1.63e-4 z m 14.613898,-1.308482 c 3.055436,-0.957618 6.262714,-1.96278 7.127283,-2.233695 0.86457,-0.270914 1.587421,-0.50908 1.606336,-0.529257 0.01892,-0.02018 1.59942,-3.030299 3.512235,-6.68916 l 3.477845,-6.652474 -2.257338,-7.19169 c -1.241535,-3.955429 -2.262619,-7.19635 -2.269076,-7.202045 -0.03052,-0.02692 -13.241344,-6.914137 -13.314616,-6.941323 -0.07279,-0.027 -0.376071,0.06053 -2.299987,0.663817 -1.21888,0.382207 -3.280794,1.028558 -4.582031,1.436334 -1.301237,0.407776 -3.538432,1.108886 -4.971544,1.558021 l -2.605658,0.81661 -3.494944,6.682516 -3.494945,6.682517 2.255076,7.187205 2.255076,7.187205 0.161933,0.08946 c 0.08906,0.0492 3.093085,1.62208 6.675605,3.495284 4.789358,2.504229 6.533491,3.402646 6.588541,3.393813 0.04118,-0.0066 2.574772,-0.795519 5.630209,-1.753138 z"
       id="path3"
       sodipodi:nodetypes="ccccccssscccsscccccsssccccsssscsscssscccccssss" /><path
       style="fill:#ffffff;fill-opacity:1;stroke:none;stroke-opacity:1"
       d="m 61.266196,44.53864 c -0.1349,-0.180018 -0.24458,-0.337581 -0.243734,-0.35014 8.46e-4,-0.01256 4.205577,-3.162875 9.343846,-7.0007 5.13827,-3.837826 9.365849,-6.995638 9.394621,-7.017361 0.04769,-0.03601 0.03534,-0.05553 -0.139793,-0.221008 -0.360958,-0.341054 -0.86187,-0.625034 -1.393781,-0.790169 -0.228331,-0.07089 -0.257255,-0.08679 -0.194661,-0.107042 0.442414,-0.143125 6.544746,-1.970775 6.560436,-1.964852 0.01163,0.0044 -0.829984,1.306224 -1.870256,2.892961 l -1.891403,2.884978 -0.02125,-0.335145 c -0.02721,-0.429009 -0.09199,-0.772021 -0.207884,-1.100595 -0.0877,-0.248647 -0.251746,-0.6057 -0.278288,-0.6057 -0.0068,0 -4.230404,3.152018 -9.385714,7.004483 -5.15531,3.852466 -9.385345,7.011934 -9.400078,7.021039 -0.01473,0.0091 -0.137159,-0.130731 -0.272058,-0.310749 z M 60.790777,42.331354 C 59.810865,41.292741 59.166093,40.45289 58.6704,39.569443 c -0.622984,-1.11031 -0.908304,-2.234466 -0.795196,-3.133066 0.2933,-2.330173 2.75083,-3.674637 4.865488,-2.661806 0.329228,0.157686 0.577139,0.333734 0.876108,0.622149 1.101433,1.062552 1.336223,2.564053 0.665024,4.252885 -0.371284,0.934203 -1.092424,2.042178 -2.003744,3.078593 -0.255899,0.291027 -1.006533,1.074836 -1.029343,1.074836 -0.0071,0 -0.213198,-0.212256 -0.45796,-0.47168 z M 61.666,38.50486 c 0.463975,-0.118453 0.921535,-0.480265 1.11644,-0.882816 0.266908,-0.551264 0.244313,-1.163602 -0.06162,-1.669986 -0.227591,-0.376709 -0.676595,-0.700759 -1.089844,-0.786549 -0.277267,-0.05756 -0.734598,-0.02403 -0.986182,0.0723 -0.945029,0.36186 -1.370187,1.47559 -0.910785,2.385864 0.21201,0.420085 0.656997,0.772651 1.11538,0.883723 0.218123,0.05285 0.604347,0.05165 0.816613,-0.0025 z"
       id="path3-7"
       sodipodi:nodetypes="sssssscsscsssssssssssssssscsssssscc" /></g></svg>
