<?xml version="1.0" encoding="UTF-8" standalone="no"?>
<!-- Created with Inkscape (http://www.inkscape.org/) -->

<svg
   width="71.80674mm"
   height="71.965439mm"
   viewBox="0 0 71.80674 71.965439"
   version="1.1"
   id="svg1"
   xml:space="preserve"
   xmlns:inkscape="http://www.inkscape.org/namespaces/inkscape"
   xmlns:sodipodi="http://sodipodi.sourceforge.net/DTD/sodipodi-0.dtd"
   xmlns="http://www.w3.org/2000/svg"
   xmlns:svg="http://www.w3.org/2000/svg"><sodipodi:namedview
     id="namedview1"
     pagecolor="#ffffff"
     bordercolor="#000000"
     borderopacity="0.25"
     inkscape:showpageshadow="2"
     inkscape:pageopacity="0.0"
     inkscape:pagecheckerboard="0"
     inkscape:deskcolor="#d1d1d1"
     inkscape:document-units="mm" /><defs
     id="defs1" /><g
     inkscape:label="Layer 1"
     inkscape:groupmode="layer"
     id="layer1"
     transform="translate(-76.973726,-79.437223)"><path
       style="fill:#000000"
       d="m 108.83759,151.25753 c -13.868284,-1.63568 -25.582143,-11.1969 -30.002594,-24.48906 -6.923912,-20.81999 6.159008,-42.862418 27.817544,-46.867687 3.64364,-0.67381 9.82645,-0.6042 13.41838,0.15109 7.06937,1.486489 13.27319,4.812869 18.28413,9.803629 4.91255,4.89276 8.08861,10.551378 9.80483,17.468728 0.55623,2.24192 0.62328,3.11397 0.62051,8.06979 -0.003,5.13167 -0.0567,5.76854 -0.705,8.33438 -3.51151,13.8987 -13.79484,23.8585 -27.86072,26.98418 -2.71841,0.60408 -8.51974,0.88195 -11.37708,0.54495 z m 10.90333,-5.00464 c 18.78752,-4.32197 29.40189,-23.60263 22.92435,-41.64135 -6.65443,-18.531308 -29.0282,-26.479507 -45.866224,-16.293798 -5.831242,3.52745 -10.406955,8.80267 -12.964697,14.946638 -2.797298,6.71941 -3.128052,14.75988 -0.897928,21.8282 2.916041,9.24231 10.510001,17.01488 19.683459,20.1464 1.69124,0.57733 3.38315,0.97379 6.87917,1.61196 1.67235,0.30528 7.8945,-0.0581 10.24187,-0.59805 z m -26.601518,-15.4193 c -3.42159,-1.69364 -3.439017,-6.43179 -0.03005,-8.17091 1.752712,-0.89417 3.649275,-0.6152 5.111346,0.75182 3.089242,2.88841 1.003055,7.97694 -3.273732,7.98513 -0.363802,7e-4 -1.177205,-0.25402 -1.807561,-0.56604 z m 9.824048,-1.00907 c -1.10224,-0.67207 -1.66649,-1.80159 -1.66649,-3.33599 0,-1.08169 0.12744,-1.36232 1.02721,-2.26209 l 1.0272,-1.02721 14.78166,9.9e-4 c 14.19397,9.5e-4 14.81532,0.0215 15.6287,0.51747 2.19374,1.3376 2.20039,4.70326 0.012,6.05578 -0.91399,0.56488 -1.03957,0.5695 -15.44234,0.56852 -13.93531,-9.5e-4 -14.55501,-0.0218 -15.36791,-0.51747 z m -9.736279,-10.2979 c -2.737655,-1.25714 -3.523386,-4.37895 -1.726475,-6.85951 1.859559,-2.56705 5.776924,-2.39342 7.564845,0.33529 1.002009,1.52927 0.785451,3.89505 -0.489474,5.34711 -1.474002,1.67879 -3.354962,2.09273 -5.348896,1.17711 z m 9.096999,-1.58793 c -0.95442,-0.95441 -1.02721,-1.13474 -1.02721,-2.54467 0,-1.40993 0.0728,-1.59025 1.02721,-2.54467 l 1.0272,-1.0272 h 14.72865 c 16.25864,0 15.72306,-0.0535 16.79349,1.67846 1.04485,1.6906 0.53928,3.94012 -1.11178,4.94683 -0.81338,0.49594 -1.43473,0.51652 -15.6287,0.51747 l -14.78166,9.9e-4 z m -9.353758,-9.89524 c -2.730798,-1.54667 -3.239928,-5.0101 -1.057338,-7.19269 1.588707,-1.588708 3.882209,-1.829538 5.691972,-0.59769 2.387193,1.62488 2.819204,4.61438 0.971021,6.71935 -1.526208,1.73826 -3.69574,2.15277 -5.605655,1.07103 z m 10.800828,-0.47464 c -0.45816,-0.13518 -1.2023,-0.66637 -1.65364,-1.18043 -0.67014,-0.76324 -0.82046,-1.16344 -0.81965,-2.18221 6.1e-4,-0.77017 0.19863,-1.5717 0.51747,-2.09462 1.0432,-1.7109 0.60125,-1.66649 16.58381,-1.66649 h 14.4827 l 0.87506,0.59532 c 2.20293,1.49867 2.21361,4.50107 0.0216,6.06455 l -0.86389,0.61617 -14.1552,0.0468 c -8.09479,0.0267 -14.51186,-0.0585 -14.98823,-0.19904 z"
       id="path1" /></g></svg>
