<?xml version="1.0" encoding="UTF-8" standalone="no"?>
<!-- Created with Inkscape (http://www.inkscape.org/) -->

<svg
   version="1.1"
   id="svg1"
   width="50.053299"
   height="45.578083"
   viewBox="0 0 50.053298 45.578083"
   sodipodi:docname="image211391.png"
   inkscape:export-filename="espejo.svg"
   inkscape:export-xdpi="96"
   inkscape:export-ydpi="96"
   xml:space="preserve"
   xmlns:inkscape="http://www.inkscape.org/namespaces/inkscape"
   xmlns:sodipodi="http://sodipodi.sourceforge.net/DTD/sodipodi-0.dtd"
   xmlns="http://www.w3.org/2000/svg"
   xmlns:svg="http://www.w3.org/2000/svg"><defs
     id="defs1" /><sodipodi:namedview
     id="namedview1"
     pagecolor="#ffffff"
     bordercolor="#000000"
     borderopacity="0.25"
     inkscape:showpageshadow="2"
     inkscape:pageopacity="0.0"
     inkscape:pagecheckerboard="0"
     inkscape:deskcolor="#d1d1d1"
     inkscape:export-bgcolor="#ffffff00" /><g
     inkscape:groupmode="layer"
     inkscape:label="Image"
     id="g1"
     transform="translate(-37.624596,-10.313854)"><path
       style="fill:#f9f9f9"
       d="m 50.931656,55.810901 c -0.772669,-0.310308 -1.370299,-1.203945 -1.372111,-2.051719 -0.0014,-0.635081 0.42182,-1.428695 0.961422,-1.803022 l 0.424108,-0.294208 2.487445,-0.02918 2.487446,-0.02918 v -1.561169 -1.561169 l -8.049588,-9.57e-4 -8.049588,-9.56e-4 -0.499336,-0.232507 c -0.620598,-0.28897 -1.174117,-0.832757 -1.446,-1.420577 L 37.667708,46.377116 37.641848,33.34886 c -0.02509,-12.639275 -0.02035,-13.03506 0.158659,-13.25613 0.255841,-0.31595 0.847961,-0.316876 1.103155,-0.0017 0.176843,0.218392 0.183126,0.66677 0.183126,13.070389 v 12.844239 l 0.220201,0.323543 c 0.121111,0.177949 0.344542,0.415674 0.496513,0.528277 l 0.276312,0.204733 h 22.593001 22.593 l 0.276312,-0.204733 c 0.151971,-0.112603 0.375402,-0.350328 0.496513,-0.528277 l 0.220202,-0.323543 V 29.397134 12.788633 L 86.03864,12.46509 c -0.486333,-0.714571 -0.541718,-0.729391 -2.861941,-0.765788 -1.915531,-0.03005 -2.103753,-0.04849 -2.260292,-0.221465 -0.22189,-0.245186 -0.218212,-0.718402 0.0075,-0.967835 0.168694,-0.186405 0.297194,-0.196947 2.389594,-0.196042 2.121489,9.17e-4 2.231597,0.0104 2.71065,0.233463 0.620597,0.28897 1.174116,0.832758 1.446,1.420577 l 0.207745,0.449152 v 16.979982 16.979982 l -0.234063,0.475469 c -0.305195,0.619965 -0.799624,1.10554 -1.419682,1.394259 l -0.499336,0.232507 -7.707053,9.56e-4 -7.707052,9.57e-4 v 1.561169 1.561169 l 2.487445,0.02918 2.487445,0.02918 0.424108,0.294208 c 0.541527,0.375662 0.962379,1.167156 0.962379,1.809939 0,0.643023 -0.420856,1.434327 -0.962618,1.80994 l -0.42435,0.294208 -11.955871,0.01887 c -7.723654,0.01219 -12.041444,-0.0155 -12.197614,-0.07822 z m 23.631697,-1.402215 c 0.366361,-0.153075 0.506197,-0.46634 0.398935,-0.893704 -0.137881,-0.549364 0.256208,-0.531821 -11.946941,-0.531821 -12.203148,0 -11.809059,-0.01754 -11.946941,0.531821 -0.104268,0.415439 0.03347,0.739982 0.377539,0.889583 0.476938,0.20737 22.621516,0.211318 23.117408,0.0041 z m -5.920634,-4.361545 v -1.565877 h -5.627372 -5.627371 v 1.565877 1.565877 h 5.627371 5.627372 z M 41.019662,41.916312 c -0.484411,-0.282144 -0.464867,0.318237 -0.464867,-14.28079 0,-14.668615 -0.02215,-14.014895 0.483915,-14.28573 0.262695,-0.14059 43.005508,-0.14059 43.268203,0 0.502247,0.268795 0.483916,-0.180845 0.483916,11.869922 0,11.17999 -3.17e-4,11.197874 -0.202838,11.455338 -0.280515,0.356616 -0.78182,0.356616 -1.062334,0 C 83.323209,36.417681 83.322819,36.39622 83.322819,25.518176 V 14.619167 H 62.672812 42.022805 v 13.016355 13.016355 h 20.650007 20.650007 v -0.740439 c 0,-0.851082 0.08221,-1.060317 0.469671,-1.195387 0.328774,-0.114612 0.834783,0.0576 0.934758,0.318136 0.03497,0.09113 0.06358,0.626697 0.06358,1.190151 0,1.084292 -0.119012,1.501622 -0.483916,1.696913 -0.260952,0.139657 -43.047375,0.134776 -43.287251,-0.0049 z m 5.113621,-4.211559 c -0.316396,-0.127429 -0.667706,-0.45795 -0.841222,-0.791441 -0.197308,-0.379221 -0.187047,-3.133662 0.01488,-3.992954 0.24639,-1.04853 0.785405,-2.016022 1.558965,-2.798229 0.778875,-0.787581 1.343887,-1.146737 2.378505,-1.511923 l 0.719861,-0.254087 -0.357375,-0.42775 C 49.410336,27.693106 49.142155,27.28875 49.010935,27.0298 l -0.238582,-0.470819 -0.707889,-9.56e-4 c -0.863298,-0.0012 -1.554634,-0.286251 -1.997726,-0.823798 -0.415407,-0.503961 -0.52071,-0.944173 -0.52071,-2.176805 0,-0.95374 0.02745,-1.12553 0.251827,-1.575788 0.214174,-0.429791 0.79828,-1.007649 1.132377,-1.120263 0.04508,-0.0152 0.148789,-0.284342 0.23046,-0.598102 0.253694,-0.974643 0.63501,-1.634534 1.368157,-2.36768 1.255653,-1.255653 2.093187,-1.514811 4.8955,-1.514811 2.76584,0 3.621256,0.259521 4.863393,1.475479 0.717874,0.702745 1.290239,1.721324 1.407808,2.505329 0.05646,0.376514 0.12238,0.468646 0.522913,0.730857 0.867431,0.56787 1.085257,1.096853 1.082057,2.627739 -0.0031,1.495995 -0.328601,2.139049 -1.31906,2.606127 -0.37342,0.176096 -0.663211,0.231937 -1.223342,0.235728 l -0.734005,0.005 -0.217376,0.464409 c -0.119557,0.255424 -0.372788,0.645972 -0.562737,0.867885 -0.189949,0.221912 -0.345361,0.425216 -0.345361,0.451787 0,0.02657 0.304995,0.14095 0.677767,0.254176 1.265309,0.384326 2.528294,1.40251 3.281397,2.645372 0.677709,1.118437 0.779383,1.59758 0.783613,3.692808 0.0042,2.061237 -0.0132,2.129117 -0.669994,2.619568 -0.266589,0.19907 -0.366454,0.20204 -7.43187,0.221023 -4.624419,0.01242 -7.248315,-0.01566 -7.406269,-0.07928 z m 14.092845,-2.718872 c 0,-1.591734 -0.161826,-2.267079 -0.767953,-3.204876 -0.464333,-0.718413 -1.035522,-1.198618 -1.928952,-1.621691 l -0.679518,-0.321777 h -3.425356 -3.425357 l -0.76144,0.363588 c -1.012439,0.48344 -1.719021,1.190022 -2.202461,2.202461 l -0.363588,0.76144 -0.03289,1.590344 -0.03289,1.590344 h 6.8102 6.8102 z M 54.01494,28.213817 c 1.099542,-0.203262 1.990356,-0.871919 2.525829,-1.89592 l 0.308936,-0.590788 v -1.663745 c 0,-1.941191 -0.08628,-2.230768 -0.930675,-3.123592 -1.721393,-1.820119 -4.640707,-1.309241 -5.706995,0.99872 -0.192374,0.41639 -0.213043,0.622538 -0.213043,2.124872 0,1.502893 0.02062,1.708379 0.21328,2.125407 0.451115,0.976479 1.523028,1.817649 2.580373,2.024915 0.606594,0.118908 0.579785,0.118905 1.222295,1.31e-4 z m -5.554742,-4.566389 -0.02708,-1.443543 -0.280961,-0.03211 c -0.40221,-0.04596 -0.711629,0.05164 -0.939672,0.296416 -0.171518,0.184103 -0.198444,0.343892 -0.198444,1.177672 0,0.893725 0.01767,0.982333 0.24022,1.204887 0.191902,0.191902 0.340068,0.24022 0.736622,0.24022 h 0.496401 z m 11.134241,1.203323 c 0.222879,-0.222879 0.24022,-0.31056 0.24022,-1.214642 0,-0.972009 -7.6e-4,-0.975061 -0.307019,-1.232761 -0.243039,-0.204504 -0.390901,-0.252205 -0.709538,-0.228902 l -0.402519,0.02944 -0.02708,1.443543 -0.02708,1.443543 h 0.496402 c 0.396554,0 0.54472,-0.04832 0.736621,-0.24022 z m -10.03585,-4.581612 c 1.693889,-2.307214 5.265308,-2.528425 7.339152,-0.454581 0.262157,0.262157 0.555776,0.6106 0.652487,0.774318 0.102859,0.174127 0.230855,0.276558 0.308399,0.246801 0.07291,-0.02798 0.19502,-0.05087 0.271358,-0.05087 0.200388,0 0.16968,-0.272909 -0.0936,-0.831872 -0.353388,-0.750263 -0.959886,-1.367432 -1.703575,-1.733549 l -0.653395,-0.321665 h -2.253006 c -2.235008,0 -2.257444,0.0021 -2.808418,0.260367 -0.75292,0.352955 -1.385689,0.960976 -1.741857,1.673733 -0.417957,0.836404 -0.396202,0.952508 0.19312,1.03069 0.02691,0.0036 0.247115,-0.263447 0.489337,-0.593373 z m 15.017784,17.407919 c -0.402388,-0.176609 -0.805093,-0.674535 -0.883482,-1.092384 -0.03534,-0.188366 -0.04429,-1.056866 -0.01989,-1.929999 0.03675,-1.315206 0.08215,-1.696635 0.264698,-2.223654 0.621659,-1.794778 2.080906,-3.256277 3.80467,-3.810541 0.38754,-0.12461 0.704618,-0.247072 0.704618,-0.272135 0,-0.02506 -0.155412,-0.227135 -0.345361,-0.449047 -0.189948,-0.221913 -0.44318,-0.612461 -0.562737,-0.867885 l -0.217376,-0.464409 -0.734005,-0.005 c -0.560131,-0.0038 -0.849921,-0.05963 -1.223342,-0.235728 -0.990458,-0.467078 -1.315932,-1.110132 -1.319059,-2.606127 -0.0032,-1.530886 0.214626,-2.059869 1.082057,-2.627739 0.400532,-0.262211 0.466451,-0.354343 0.522912,-0.730857 0.117569,-0.784005 0.689935,-1.802584 1.407808,-2.505329 0.70082,-0.686049 1.403231,-1.086079 2.331669,-1.327906 0.687692,-0.179121 4.145179,-0.206891 4.949124,-0.03975 1.787602,0.371643 3.359252,1.904552 3.838281,3.74367 0.163329,0.62706 0.222078,0.748273 0.36267,0.748273 0.233743,0 0.780465,0.5442 1.010518,1.005856 0.221642,0.444778 0.249452,0.619923 0.249452,1.571023 0,1.232632 -0.105302,1.672844 -0.52071,2.176805 -0.443092,0.537547 -1.134428,0.822632 -1.997725,0.823798 l -0.70789,9.56e-4 -0.249746,0.492851 c -0.137361,0.271067 -0.40852,0.668594 -0.602578,0.883392 -0.194057,0.214798 -0.335644,0.405461 -0.314639,0.423695 0.02101,0.01823 0.280413,0.110533 0.576462,0.20511 1.500858,0.479469 2.890444,1.649586 3.546278,2.986186 0.53678,1.093967 0.658894,1.756168 0.660571,3.582152 0.0014,1.474401 -0.01273,1.596704 -0.218755,1.899414 -0.121111,0.177949 -0.344522,0.415673 -0.496468,0.528276 -0.27375,0.202868 -0.341515,0.204931 -7.437918,0.226363 -5.804406,0.01753 -7.218212,-0.0032 -7.460104,-0.109362 z M 78.707008,34.75537 78.67412,33.165026 78.319178,32.431021 C 77.713255,31.177997 76.86075,30.411985 75.599192,29.986997 75.010558,29.7887 74.829015,29.780293 71.738714,29.808226 l -3.242796,0.02931 -0.679518,0.321777 c -0.89343,0.423073 -1.464618,0.903278 -1.928951,1.621691 -0.606128,0.937797 -0.767954,1.613142 -0.767954,3.204876 v 1.359833 h 6.8102 6.8102 z m -6.195142,-6.541553 c 0.317684,-0.05873 0.750411,-0.194935 0.961615,-0.302683 0.595011,-0.303552 1.305044,-1.027204 1.602824,-1.633567 0.248739,-0.5065 0.27308,-0.659875 0.30481,-1.920601 0.04168,-1.655961 -0.06459,-2.200689 -0.579814,-2.972248 -1.244126,-1.863092 -3.832731,-2.075359 -5.37841,-0.441031 -0.842086,0.890382 -0.926973,1.176064 -0.926973,3.119677 0,1.645138 0.0032,1.670068 0.286336,2.229179 0.496421,0.980294 1.46041,1.713932 2.529278,1.924892 0.580881,0.114648 0.560238,0.11471 1.200334,-0.0036 z m -5.554742,-4.566389 -0.02708,-1.443543 -0.402519,-0.02944 c -0.318637,-0.0233 -0.4665,0.0244 -0.709538,0.228902 -0.30626,0.2577 -0.30702,0.260752 -0.30702,1.232761 0,0.904082 0.01734,0.991763 0.24022,1.214642 0.191901,0.191902 0.340068,0.24022 0.736621,0.24022 h 0.496402 z m 11.134241,1.203323 c 0.222554,-0.222554 0.24022,-0.311162 0.24022,-1.204887 0,-0.83378 -0.02693,-0.993569 -0.198444,-1.177672 -0.228043,-0.244776 -0.537462,-0.342381 -0.939672,-0.296416 l -0.28096,0.03211 -0.02708,1.443543 -0.02708,1.443543 h 0.496402 c 0.396553,0 0.54472,-0.04832 0.736621,-0.24022 z M 67.796538,20.586942 c 0.476786,-0.807135 1.609633,-1.649389 2.70566,-2.011617 0.793614,-0.262283 2.110304,-0.242027 2.962075,0.04557 1.090437,0.368179 2.190158,1.233049 2.689952,2.115501 0.10661,0.188233 0.611483,0.07009 0.611483,-0.143097 0,-0.338011 -0.603601,-1.36455 -1.037547,-1.764548 -0.244813,-0.22566 -0.69505,-0.527457 -1.000526,-0.670659 -0.550929,-0.258265 -0.573581,-0.260367 -2.80636,-0.260367 -2.23278,0 -2.255432,0.0021 -2.806361,0.260367 -0.752919,0.352955 -1.385688,0.960976 -1.741856,1.673733 -0.35566,0.711738 -0.372153,0.924747 -0.07601,0.981786 0.121111,0.02333 0.243736,0.04841 0.272501,0.05574 0.02877,0.0073 0.130912,-0.119753 0.226994,-0.282406 z M 37.812733,17.922204 c -0.199413,-0.214046 -0.204297,-0.293887 -0.17508,-2.86262 0.02788,-2.45125 0.04509,-2.674929 0.237801,-3.091584 0.271883,-0.587819 0.825402,-1.131607 1.446,-1.420577 l 0.499336,-0.232507 19.402198,-9.56e-4 c 19.272353,-9.5e-4 19.403509,3.54e-4 19.597933,0.194779 0.228447,0.228447 0.254941,0.664553 0.05683,0.935501 -0.136476,0.186654 -0.476618,0.190828 -19.468438,0.238907 l -19.329535,0.04893 -0.276296,0.204734 c -0.151963,0.112603 -0.375387,0.350327 -0.496498,0.528276 -0.213951,0.31436 -0.220201,0.393442 -0.220201,2.786233 0,2.343097 -0.0097,2.473092 -0.199548,2.676879 -0.270938,0.290818 -0.800732,0.287861 -1.074504,-0.006 z"
       id="path13" /></g></svg>
