<?xml version="1.0" encoding="UTF-8" standalone="no"?>
<!-- Created with Inkscape (http://www.inkscape.org/) -->

<svg
   version="1.1"
   id="svg1"
   width="47.627071"
   height="47.659325"
   viewBox="0 0 47.62707 47.659325"
   sodipodi:docname="monitoreo.svg"
   inkscape:export-filename="combustible.svg"
   inkscape:export-xdpi="96"
   inkscape:export-ydpi="96"
   xml:space="preserve"
   xmlns:inkscape="http://www.inkscape.org/namespaces/inkscape"
   xmlns:sodipodi="http://sodipodi.sourceforge.net/DTD/sodipodi-0.dtd"
   xmlns="http://www.w3.org/2000/svg"
   xmlns:svg="http://www.w3.org/2000/svg"><defs
     id="defs1" /><sodipodi:namedview
     id="namedview1"
     pagecolor="#ffffff"
     bordercolor="#000000"
     borderopacity="0.25"
     inkscape:showpageshadow="2"
     inkscape:pageopacity="0.0"
     inkscape:pagecheckerboard="0"
     inkscape:deskcolor="#d1d1d1"
     inkscape:export-bgcolor="#ffffff00" /><g
     inkscape:groupmode="layer"
     inkscape:label="Image"
     id="g1"
     transform="translate(-58.126712,0.91354297)"><path
       style="fill:none;stroke:#ffffff;stroke-width:1.655;stroke-dasharray:none;stroke-opacity:1"
       d="M 78.225001,45.636382 C 69.979024,44.250037 63.106625,38.510707 60.271912,30.643271 58.998418,27.10883 58.614246,22.526456 59.282101,18.836847 60.794229,10.482945 66.939191,3.5047622 75.020082,0.96486822 c 5.40189,-1.69785815 11.418824,-1.32390515 16.636872,1.03398398 3.34273,1.510487 7.27386,4.853834 9.284436,7.896208 2.81304,4.2566548 3.99948,8.1598248 3.98476,13.1090988 -0.0144,4.837036 -1.2107,8.725028 -3.9674,12.893874 -2.006926,3.035022 -5.986736,6.424822 -9.301796,7.922807 -4.083838,1.84537 -9.167473,2.532508 -13.431953,1.815542 z m 8.633385,-4.043176 c 1.85503,-0.50748 4.619198,-1.794684 6.130518,-2.854807 0.62224,-0.436484 1.13135,-0.843782 1.13135,-0.905112 0,-0.06131 -1.0694,-1.183299 -2.37644,-2.493251 l -2.376448,-2.381732 0.963698,-0.0926 c 1.0365,-0.09959 1.57081,-0.454584 2.03485,-1.351935 l 0.28185,-0.545042 2.11389,2.107894 2.1139,2.107901 0.80961,-1.091748 c 1.16452,-1.570344 2.398926,-4.224038 2.970826,-6.386575 0.41776,-1.579718 0.49852,-2.300662 0.51611,-4.607725 0.0311,-4.083487 -0.33442,-5.407981 -3.491676,-12.650975 -0.94643,-2.1711778 -1.77808,-3.9475958 -1.8481,-3.9475958 -0.07,0 -0.22852,0.279846 -0.3522,0.621881 -0.12368,0.342035 -0.34662,0.787651 -0.49543,0.990256 -0.26482,0.360563 -0.28185,0.35779 -0.80327,-0.130779 -1.51716,-1.421574 -4.905988,-3.121769 -7.700278,-3.863278 -2.07371,-0.55029 -7.17663,-0.504675 -9.336694,0.08346 -2.454155,0.66821 -5.241054,2.022996 -6.884633,3.346809 l -0.56586,0.455767 2.789821,2.7945408 c 2.509098,2.513343 2.773276,2.83926 2.625414,3.238969 -0.428357,1.157974 0.402493,2.081997 1.872069,2.081997 1.018927,0 1.184639,0.289384 0.62404,1.089752 -0.26509,0.378473 -0.452788,0.419209 -1.931539,0.419209 h -1.637919 l -3.510907,-3.50726 -3.510908,-3.507259 -0.79229,1.102353 c -1.183085,1.646073 -2.411538,4.289941 -2.972408,6.39718 -0.436862,1.641363 -0.498449,2.233946 -0.498449,4.796345 0,2.540515 0.06338,3.161354 0.483635,4.737928 1.837202,6.892176 7.133383,12.224827 13.817614,13.91277 2.237257,0.564962 2.21803,0.563167 5.373681,0.502078 2.291233,-0.04434 3.249993,-0.145894 4.432573,-0.469413 z M 66.958966,29.15789 V 25.974922 L 66.389991,25.861129 C 65.712833,25.7257 65.368213,25.035726 65.631656,24.34282 c 0.242933,-0.638962 0.467274,-0.73019 1.725655,-0.701746 l 1.110611,0.02509 v -0.906302 c 0,-1.118825 0.225532,-1.358993 1.276161,-1.358993 1.311648,0 1.757164,-0.330778 2.594844,-1.926584 0.256714,-0.489046 0.631041,-0.9771 0.831849,-1.084566 0.200801,-0.107466 1.170081,-0.195393 2.153955,-0.195393 0.983873,0 1.926263,-0.05273 2.0942,-0.117167 0.411511,-0.157914 0.857241,-1.059236 0.857241,-1.73347 0,-0.53593 -0.02795,-0.551563 -1.170929,-0.655206 -0.812059,-0.07364 -1.24562,-0.208329 -1.414648,-0.439488 -0.345169,-0.472048 -0.30206,-1.09305 0.10121,-1.458007 0.306367,-0.277257 1.044113,-0.312164 6.597357,-0.312164 h 6.252414 l 0.32321,0.493285 c 0.28955,0.441893 0.29428,0.545061 0.0454,0.990255 -0.24459,0.437574 -0.4236,0.508242 -1.49773,0.591281 -1.21713,0.09409 -1.22008,0.09573 -1.27923,0.709706 -0.0454,0.471383 0.0654,0.740045 0.47337,1.148044 0.29295,0.292955 0.65508,0.573458 0.80472,0.623338 0.21752,0.07251 0.16829,0.267785 -0.24554,0.973933 -0.28469,0.485783 -0.47006,0.883241 -0.41193,0.883241 0.0581,0 0.94809,-0.422733 1.97768,-0.939407 l 1.871988,-0.939408 0.38802,0.493294 c 0.21342,0.271312 0.38803,0.572447 0.38803,0.669188 0,0.09674 0.15783,0.125802 0.35072,0.06458 0.28575,-0.0907 0.44154,0.0981 0.84099,1.019148 0.38217,0.881197 0.60244,1.15862 0.99897,1.25814 0.55634,0.139628 1.01587,-0.2707 1.01587,-0.907105 0,-0.703042 0.67591,-1.09567 1.88619,-1.09567 1.91785,0 1.8862,-0.08957 1.8862,5.339623 0,3.409597 -0.0615,4.669155 -0.23961,4.912837 -0.19948,0.272803 -0.49107,0.318336 -1.74078,0.271826 -1.48691,-0.05532 -1.50275,-0.06124 -1.66863,-0.62173 -0.27739,-0.937229 -0.42337,-1.129168 -0.9031,-1.187456 -0.6626,-0.0805 -1.24824,0.64222 -1.58491,1.955872 -0.15755,0.614779 -0.4418,1.329983 -0.63166,1.589334 l -0.34519,0.471552 -8.827899,0.04905 c -7.588017,0.04213 -8.88858,0.0093 -9.25987,-0.233993 -0.448418,-0.293814 -0.825048,-1.311585 -0.826865,-2.234464 -6.61e-4,-0.336869 -0.204074,-0.736235 -0.552401,-1.084561 -0.462954,-0.462955 -0.703171,-0.551354 -1.49827,-0.551354 -1.122496,0 -1.534164,-0.416173 -1.534164,-1.550931 v -0.71251 h -0.848794 c -0.807496,0 -0.848787,0.02616 -0.848787,0.537765 0,0.295773 0.221632,0.953582 0.492525,1.461806 0.417357,0.78303 0.476513,1.082353 0.387622,1.961451 -0.146999,1.453814 -0.470525,2.452059 -0.794707,2.452059 -0.228839,0 -0.274058,-0.525175 -0.274058,-3.182962 z m -0.489937,-7.154428 c -0.752795,-0.967137 -0.846356,-1.32083 -0.790579,-2.988837 0.05703,-1.706452 0.287874,-2.156133 0.971947,-1.89363 0.265389,0.10184 0.308569,0.488745 0.308569,2.76501 0,1.455634 -0.02124,2.641905 -0.04712,2.636167 -0.02595,-0.0057 -0.225189,-0.239155 -0.442779,-0.51871 z m 25.048925,-4.373785 c -0.17672,-0.310567 -0.38779,-0.565205 -0.46905,-0.565861 -0.0813,-6.6e-4 -0.56648,0.211006 -1.078288,0.470358 -0.51181,0.259353 -0.97249,0.47155 -1.02374,0.47155 -0.13139,0 1.848588,-3.38959 1.981758,-3.392651 0.0601,-0.0014 0.30799,0.421885 0.55094,0.94059 0.24295,0.518705 0.50194,0.9431 0.57553,0.9431 0.0736,0 0.91532,-1.761239 1.87052,-3.913867 0.9552,-2.152626 1.79533,-3.9756758 1.86694,-4.0512198 0.0954,-0.100678 2.14202,4.3175868 2.81629,6.0799938 0.047,0.123056 -6.40026,3.582674 -6.67667,3.582674 -0.0511,0 -0.23751,-0.2541 -0.41423,-0.564667 z"
       id="path1" /></g></svg>
