<?xml version="1.0" encoding="UTF-8" standalone="no"?>
<!-- Created with Inkscape (http://www.inkscape.org/) -->

<svg
   version="1.1"
   id="svg1"
   width="45.978745"
   height="46.000011"
   viewBox="0 0 45.978744 46.000011"
   sodipodi:docname="monitoreo.svg"
   inkscape:export-filename="combustible.svg"
   inkscape:export-xdpi="96"
   inkscape:export-ydpi="96"
   xml:space="preserve"
   xmlns:inkscape="http://www.inkscape.org/namespaces/inkscape"
   xmlns:sodipodi="http://sodipodi.sourceforge.net/DTD/sodipodi-0.dtd"
   xmlns="http://www.w3.org/2000/svg"
   xmlns:svg="http://www.w3.org/2000/svg"><defs
     id="defs1" /><sodipodi:namedview
     id="namedview1"
     pagecolor="#ffffff"
     bordercolor="#000000"
     borderopacity="0.25"
     inkscape:showpageshadow="2"
     inkscape:pageopacity="0.0"
     inkscape:pagecheckerboard="0"
     inkscape:deskcolor="#d1d1d1"
     inkscape:export-bgcolor="#ffffff00" /><g
     inkscape:groupmode="layer"
     inkscape:label="Image"
     id="g1"
     transform="translate(-45.96811,2.4136088)"><path
       style="fill:none;stroke:#ffffff;stroke-width:1.32412;stroke-dasharray:none;stroke-opacity:1"
       d="M 67.890913,42.90842 C 67.812953,42.90262 67.551435,42.88453 67.30976,42.86769 64.424558,42.667205 61.573427,41.886847 58.975687,40.586606 56.862353,39.528829 55.03863,38.228004 53.351657,36.575107 49.4089,32.711993 47.029304,27.512941 46.701752,22.04608 c -0.01602,-0.265074 -0.03713,-0.577609 -0.04724,-0.694549 -0.06284,-0.727864 0.013,-2.278997 0.175205,-3.586152 0.56522,-4.553514 2.495717,-8.7727336 5.584033,-12.2042498 0.405087,-0.4501037 1.398346,-1.4298486 1.841265,-1.8162115 3.766914,-3.28591578 8.36273,-5.1641805 13.388143,-5.4716051 0.715542,-0.043788 2.512921,-0.019354 3.181858,0.043124 4.118155,0.3849868 7.865387,1.81356291 11.1766,4.2609126 0.198791,0.1469317 0.361449,0.2756585 0.361449,0.286061 0,0.010281 -0.819702,0.8385317 -1.821561,1.8402997 L 78.71995,6.525106 78.448979,6.343884 C 76.536108,5.0647097 74.21536,4.1219137 71.958996,3.7073435 71.619573,3.6449939 70.787572,3.5199834 70.711859,3.5199834 c -0.01844,0 -0.02843,0.3018752 -0.02843,0.8621514 0,0.9570841 -0.02449,1.17589 -0.16565,1.4742756 -0.365422,0.7729202 -1.18324,1.1617297 -2.002725,0.9521403 C 67.963805,6.6675764 67.536057,6.2714159 67.32117,5.7028574 l -0.08037,-0.2126101 -0.01,-0.9869208 -0.01,-0.9869202 -0.161022,0.018146 c -2.72214,0.3084246 -5.295188,1.2422065 -7.574298,2.7487714 -0.984656,0.650894 -1.752247,1.2825225 -2.651913,2.1821917 -1.399123,1.3991223 -2.377248,2.7582576 -3.255017,4.5229476 -0.885028,1.779287 -1.448676,3.697384 -1.675946,5.703263 l -0.01815,0.161023 0.986921,0.01119 c 1.062143,0.0121 1.079434,0.01421 1.404028,0.17732 0.459387,0.230724 0.777168,0.620576 0.901205,1.105554 0.209223,0.818094 -0.180526,1.637927 -0.95214,2.002727 -0.298519,0.141125 -0.51704,0.165648 -1.476316,0.165648 h -0.86419 l 0.01875,0.163018 c 0.22398,1.946439 0.766657,3.82778 1.604591,5.562773 1.115741,2.310213 2.783867,4.390102 4.801782,5.987061 2.54364,2.013013 5.445421,3.205032 8.779168,3.606385 l 0.132719,0.01602 0.01028,-0.998493 c 0.0097,-0.938989 0.01391,-1.008251 0.07154,-1.16222 0.267312,-0.715867 0.829204,-1.154577 1.54023,-1.202563 0.478365,-0.0323 0.925784,0.133052 1.284587,0.474664 0.229453,0.218477 0.356692,0.413291 0.465041,0.712045 0.07533,0.207681 0.07542,0.209042 0.08528,1.193033 l 0.01,0.985103 0.104053,-0.01391 c 0.05725,-0.0078 0.295435,-0.03995 0.5293,-0.07157 4.168151,-0.563847 8.046962,-2.715642 10.779241,-5.979855 2.069884,-2.47286 3.408381,-5.486872 3.834031,-8.633416 0.03163,-0.233869 0.06401,-0.473074 0.07194,-0.531544 l 0.01451,-0.10632 -0.914589,-4.92e-4 c -1.049639,-5.66e-4 -1.176719,-0.01723 -1.551582,-0.201906 -0.420784,-0.207439 -0.732197,-0.582103 -0.876911,-1.055037 -0.07297,-0.238495 -0.0805,-0.662675 -0.01603,-0.909787 0.116512,-0.447356 0.490749,-0.908106 0.89582,-1.102936 0.363497,-0.174842 0.466176,-0.187542 1.519586,-0.187996 l 0.942061,-4.2e-4 -0.01361,-0.120472 c -0.0075,-0.06625 -0.03353,-0.299093 -0.05793,-0.51737 -0.201089,-1.798576 -0.657513,-3.421574 -1.362988,-4.846775 l -0.181978,-0.36763 1.878949,-1.87929 c 1.688609,-1.6889114 1.882677,-1.8742369 1.915743,-1.8294168 0.134775,0.1826732 0.71842,1.3097358 1.024096,1.9776028 1.096131,2.394898 1.761295,4.89998 2.006045,7.555014 0.07041,0.764114 0.07041,2.773323 -4.8e-5,3.5578 -0.174656,1.944794 -0.513222,3.601601 -1.085834,5.313876 -1.104717,3.303432 -2.93147,6.247472 -5.410008,8.718887 -2.588739,2.581306 -5.767983,4.486456 -9.252384,5.544456 -1.50199,0.456061 -2.993133,0.740419 -4.682432,0.89293 -0.462048,0.0417 -2.533189,0.07878 -2.905776,0.05198 z m 0.822121,-18.882108 c -0.200484,-0.04176 -0.333832,-0.08476 -0.493245,-0.159087 -0.13656,-0.06369 -1.28443,-0.966987 -4.642305,-3.653228 -4.773663,-3.818846 -4.615047,-3.683848 -4.792163,-4.078666 -0.370923,-0.826844 -0.01179,-1.842365 0.791459,-2.23832 0.385356,-0.189961 0.70758,-0.235713 1.113105,-0.15815 0.437941,0.08379 0.344658,0.01451 4.349071,3.23125 2.048759,1.645779 3.732621,2.992322 3.74192,2.992322 0.0094,0 4.048206,-4.030074 8.975346,-8.955718 6.182943,-6.1810658 9.008365,-8.987155 9.119583,-9.0571886 0.214757,-0.135229 0.417815,-0.2134568 0.675152,-0.2600554 0.280133,-0.050741 0.43861,-0.049805 0.702831,0.00424 0.63683,0.1299669 1.134202,0.5974123 1.326811,1.2469781 0.07233,0.243938 0.06489,0.6746617 -0.016,0.9338243 -0.137949,0.4413558 0.452993,-0.1662838 -9.942387,10.2237256 -9.50083,9.495932 -9.665264,9.658455 -9.874342,9.759516 -0.314772,0.152162 -0.763173,0.22525 -1.03474,0.168703 z"
       id="path1" /></g></svg>
