<?xml version="1.0" encoding="UTF-8" standalone="no"?>
<!-- Created with Inkscape (http://www.inkscape.org/) -->

<svg
   version="1.1"
   id="svg1"
   width="47.795044"
   height="47.762802"
   viewBox="0 0 47.795043 47.762802"
   sodipodi:docname="monitoreo.svg"
   inkscape:export-filename="combustible.svg"
   inkscape:export-xdpi="96"
   inkscape:export-ydpi="96"
   xml:space="preserve"
   xmlns:inkscape="http://www.inkscape.org/namespaces/inkscape"
   xmlns:sodipodi="http://sodipodi.sourceforge.net/DTD/sodipodi-0.dtd"
   xmlns="http://www.w3.org/2000/svg"
   xmlns:svg="http://www.w3.org/2000/svg"><defs
     id="defs1" /><sodipodi:namedview
     id="namedview1"
     pagecolor="#ffffff"
     bordercolor="#000000"
     borderopacity="0.25"
     inkscape:showpageshadow="2"
     inkscape:pageopacity="0.0"
     inkscape:pagecheckerboard="0"
     inkscape:deskcolor="#d1d1d1"
     inkscape:export-bgcolor="#ffffff00" /><g
     inkscape:groupmode="layer"
     inkscape:label="Image"
     id="g1"
     transform="translate(-50.989734,-5.0560925)"><path
       style="fill:#ffffff;fill-opacity:1;stroke:none;stroke-width:1.755;stroke-dasharray:none;stroke-opacity:1"
       d="m 66.853095,35.634715 c -0.253233,-0.0611 -0.538899,-0.129471 -0.634843,-0.151964 -1.113946,-0.261212 -2.200152,-1.12363 -2.709067,-2.15091 -0.348535,-0.703541 -0.452016,-1.197557 -0.432923,-2.066769 0.01473,-0.667946 0.04527,-0.826696 0.233071,-1.20915 0.210455,-0.428556 1.01307,-1.353338 1.191266,-1.372573 0.122412,-0.01319 0.176422,-0.027 0.384351,-0.09774 0.180135,-0.06132 0.180043,-0.06162 -0.06337,-0.209657 -0.884345,-0.5378 -1.264581,-1.097724 -1.387677,-2.043424 -0.221196,-1.699275 0.566115,-3.284854 1.987257,-4.002248 0.260015,-0.13125 0.472758,-0.216652 0.472758,-0.189771 0,0.027 0.04422,0.01228 0.09829,-0.03271 0.05407,-0.04487 0.183542,-0.100256 0.287757,-0.123056 0.104184,-0.02271 0.413897,-0.09713 0.688218,-0.165129 0.635116,-0.157427 2.344582,-0.114833 3.030977,0.07552 0.674034,0.186948 1.655646,0.702878 2.033598,1.068878 0.784175,0.759372 1.170951,1.672775 1.174921,2.774672 0.0024,0.686438 -0.180012,1.496305 -0.337178,1.496305 -0.03882,0 -0.07055,0.04763 -0.07055,0.10581 0,0.119527 -1.033725,1.121929 -1.156972,1.121929 -0.04392,0 -0.05849,0.03452 -0.0324,0.07675 0.02609,0.0422 0.102803,0.07672 0.170469,0.07672 0.221747,0 0.833438,0.452066 1.084258,0.801326 0.256026,0.356524 0.429523,0.771258 0.504799,1.206768 0.124714,0.721501 0.130145,0.930342 0.03784,1.452664 -0.05518,0.312266 -0.103325,0.585022 -0.106976,0.606123 -0.0037,0.02117 -0.125236,0.280084 -0.270173,0.5755 -0.318047,0.648229 -1.161455,1.537045 -1.727135,1.820118 -0.211007,0.105595 -0.62538,0.266613 -0.920804,0.35781 -0.295428,0.0912 -0.623462,0.192932 -0.728968,0.226105 -0.351819,0.110567 -2.307595,0.09108 -2.800775,-0.02792 z m 2.608046,-2.916341 c 0.511673,-0.160956 0.746957,-0.490419 0.791672,-1.108599 0.0178,-0.244794 -0.0083,-0.567887 -0.05784,-0.717961 -0.111855,-0.33889 -0.520581,-0.706728 -0.903471,-0.813057 -0.390842,-0.108542 -1.723674,-0.103079 -1.992174,0.0083 -0.118791,0.04922 -0.239025,0.09237 -0.267134,0.09593 -0.168536,0.02118 -0.560003,0.413879 -0.683308,0.685428 -0.254859,0.561293 -0.154051,1.108621 0.289689,1.572968 0.166111,0.173844 0.343454,0.255596 0.720256,0.332158 0.632947,0.128581 1.599018,0.103294 2.10232,-0.05499 z m -0.243198,-5.645367 c 0.16117,-0.04232 0.402877,-0.181915 0.537134,-0.310207 0.233654,-0.22325 0.244089,-0.25894 0.244089,-0.83379 0,-0.669262 -0.11692,-0.913703 -0.56155,-1.174098 -0.578514,-0.338802 -1.866468,-0.298435 -2.409176,0.07552 -0.377551,0.260137 -0.629713,0.779513 -0.575332,1.184965 0.04815,0.35888 0.352204,0.787437 0.678377,0.95611 0.498963,0.25802 1.335533,0.298712 2.086442,0.101483 z m 11.070083,8.556838 c -0.249611,-0.06039 -0.499962,-0.148067 -0.55632,-0.194835 -0.05634,-0.04677 -0.102465,-0.06306 -0.102465,-0.03618 0,0.0673 -0.952959,-0.416616 -0.984745,-0.500064 -0.01412,-0.03692 -0.06601,-0.06715 -0.115415,-0.06715 -0.181118,0 -1.052592,-0.79421 -1.458801,-1.329482 -0.984189,-1.296882 -1.216189,-2.229922 -1.214907,-4.885938 0.0011,-2.414507 0.240467,-3.396919 1.133658,-4.654217 0.349567,-0.492064 1.227013,-1.330058 1.393299,-1.330653 0.05275,-1.91e-4 0.09596,-0.02639 0.09599,-0.05791 1.04e-4,-0.07727 0.636642,-0.430429 1.116998,-0.619721 0.416834,-0.16427 0.637225,-0.215426 1.41513,-0.328487 0.845801,-0.122934 2.149996,0.119221 3.030459,0.562666 0.843349,0.42476 1.993112,1.47393 2.320139,2.117145 0.07905,0.155463 0.226259,0.438039 0.327175,0.627951 0.100899,0.189924 0.191735,0.379834 0.2018,0.422036 0.336856,1.40944 0.348932,1.501377 0.382918,2.915877 0.06089,2.534047 -0.270204,3.952194 -1.221643,5.232433 -0.723137,0.973047 -2.109596,1.858981 -3.329495,2.127515 -0.672789,0.148097 -1.819394,0.147637 -2.433778,-8.93e-4 z m 2.131216,-3.102786 c 0.492475,-0.184247 1.052149,-0.653207 1.311013,-1.098484 0.556644,-0.957498 0.590399,-4.356955 0.05358,-5.396065 -0.470963,-0.911636 -1.701109,-1.533148 -2.639111,-1.333364 -1.273768,0.271308 -1.986367,1.130872 -2.141222,2.582855 -0.101422,0.951041 -0.02916,3.1312 0.117901,3.558151 0.283491,0.822822 0.870694,1.445222 1.623581,1.720881 0.450006,0.164761 1.182807,0.149908 1.674241,-0.03397 z"
       id="path1"
       sodipodi:nodetypes="ccsccccccssccscscssscscssccssccccccscccccccccssccsccccscsscssccsssccsssccssscscsss"
       inkscape:export-filename="velocidad.svg"
       inkscape:export-xdpi="96"
       inkscape:export-ydpi="96" /><path
       style="fill:none;fill-opacity:1;stroke:#ffffff;stroke-width:1.755;stroke-dasharray:none;stroke-opacity:1"
       d="m 73.045939,51.926444 c -4.86216,-0.435277 -9.22898,-2.223071 -12.94487,-5.299693 -0.90032,-0.745432 -2.46285,-2.334231 -3.19325,-3.246935 -2.75019,-3.436644 -4.42611,-7.479511 -4.93038,-11.893703 -0.1755,-1.536168 -0.11765,-4.587641 0.11413,-6.023584 0.63013,-3.903442 2.11528,-7.41095 4.41873,-10.435764 3.65978,-4.805903 8.84147,-7.8930933 14.88586,-8.8688323 1.43623,-0.231843 4.48756,-0.289627 6.02359,-0.114065 4.37155,0.49966 8.18012,2.05876 11.74023,4.8060573 0.95366,0.735924 2.95909,2.736749 3.76343,3.754801 2.41598,3.057869 4.03483,6.680794 4.67256,10.457041 0.49043,2.904094 0.39702,6.117775 -0.26343,9.062484 -0.82379,3.673022 -2.69878,7.291265 -5.27577,10.180863 -3.12364,3.502551 -7.4861,6.081655 -11.99889,7.093792 -1.7654,0.395947 -2.77294,0.508411 -4.78668,0.53429 -1.03398,0.01319 -2.03536,0.01012 -2.22527,-0.0067 z m 4.22034,-6.244535 c 0.27432,-0.04851 0.55057,-0.108388 0.61387,-0.133061 0.0633,-0.02455 0.14608,-0.03768 0.18391,-0.02885 0.0378,0.0089 0.36998,-0.05477 0.73808,-0.141192 4.86556,-1.142301 9.12585,-4.577597 11.29154,-9.104983 0.49118,-1.026802 1.01517,-2.450915 0.9441,-2.5659 -0.0249,-0.04026 -0.0132,-0.07319 0.0258,-0.07319 0.039,0 0.12708,-0.233071 0.19572,-0.517952 0.83255,-3.454019 0.62537,-7.07971 -0.57987,-10.148015 -0.64566,-1.64372 -1.53562,-3.251519 -2.36158,-4.266408 -0.10649,-0.130851 -0.31447,-0.388794 -0.46218,-0.573223 -0.97012,-1.211258 -2.65145,-2.675208 -4.10525,-3.574485 -1.06263,-0.657306 -3.31909,-1.674031 -3.83668,-1.728743 -0.12661,-0.0135 -0.25007,-0.05116 -0.27434,-0.08393 -0.0242,-0.03277 -0.15372,-0.0673 -0.28761,-0.07675 -0.13389,-0.0095 -0.2435,-0.03725 -0.24359,-0.06184 -2.1e-4,-0.05963 -1.56091,-0.355865 -2.3789,-0.45153 -1.30543,-0.15267 -4.46639,-0.02455 -4.98768,0.201985 -0.0633,0.02762 -0.14232,0.04413 -0.17562,0.03689 -0.23952,-0.05214 -3.12158,0.841495 -3.30478,1.024691 -0.0593,0.05929 -0.12425,0.09136 -0.14435,0.07129 -0.0703,-0.07031 -1.94532,0.944249 -2.70578,1.464057 -1.02161,0.698321 -1.45105,1.059362 -2.45917,2.067471 -1.01636,1.016369 -1.38817,1.458344 -2.03648,2.420801 -0.61375,0.911141 -0.74156,1.13395 -1.26953,2.213221 -0.39633,0.810164 -1.20158,3.055294 -1.16903,3.259402 0.008,0.0498 -0.0224,0.179614 -0.0677,0.288432 -0.30685,0.739129 -0.49858,3.983907 -0.32752,5.542222 0.0519,0.472446 0.11235,0.888723 0.13438,0.925073 0.0221,0.03637 0.0499,0.191735 0.062,0.345301 0.0378,0.482085 0.4082,1.856237 0.73722,2.73469 1.3044,3.482666 3.54473,6.302565 6.60199,8.309915 0.94137,0.61809 1.55565,0.952399 1.62413,0.883917 0.0273,-0.02731 0.0498,-0.0083 0.0498,0.0425 0,0.103724 0.33983,0.26204 1.59102,0.741185 1.25697,0.481354 2.74126,0.844322 4.20236,1.027637 0.71024,0.08912 3.55016,0.04121 4.18199,-0.07055 z"
       id="path1-2"
       sodipodi:nodetypes="cssccssssssssscccccccscscsscsccccsccscssssccsccsssssccc" /></g></svg>
