<?xml version="1.0" encoding="UTF-8" standalone="no"?>
<!-- Created with Inkscape (http://www.inkscape.org/) -->

<svg
   version="1.1"
   id="svg1"
   width="760.0036"
   height="759.29272"
   viewBox="0 0 760.0036 759.29272"
   sodipodi:docname="logo whats.png"
   xmlns:inkscape="http://www.inkscape.org/namespaces/inkscape"
   xmlns:sodipodi="http://sodipodi.sourceforge.net/DTD/sodipodi-0.dtd"
   xmlns="http://www.w3.org/2000/svg"
   xmlns:svg="http://www.w3.org/2000/svg">
  <defs
     id="defs1" />
  <sodipodi:namedview
     id="namedview1"
     pagecolor="#ffffff"
     bordercolor="#000000"
     borderopacity="0.25"
     inkscape:showpageshadow="2"
     inkscape:pageopacity="0.0"
     inkscape:pagecheckerboard="0"
     inkscape:deskcolor="#d1d1d1" />
  <g
     inkscape:groupmode="layer"
     inkscape:label="Image"
     id="g1"
     transform="translate(-113.83405,-117.28551)">
    <path
       style="fill:#23a116;stroke:none"
       d="m 138.78919,860.53307 c 36.58495,-8.46368 71.94736,-23.86731 108,-34.42438 10.18628,-2.98279 27.03491,-12.82721 37.57562,-11.35571 10.02994,1.40015 23.20825,13.76483 32.42438,18.52161 23.05804,11.90118 47.03711,21.72003 72,28.83722 106.56003,30.3811 225.07037,12.52209 317,-49.92286 48.76984,-33.12786 90.09229,-77.09448 118.86034,-128.65588 23.69599,-42.47058 39.51117,-88.73328 45.85803,-137 5.66565,-43.08636 4.19818,-87.47357 -5.14276,-130 -8.70019,-39.60919 -23.31372,-78.06384 -44.02777,-113 C 731.58881,152.16417 549.15272,84.002611 381.78919,132.95745 c -53.33121,15.59967 -101.34378,45.04822 -143,81.294 -41.44502,36.06202 -74.3618,83.7273 -95.57562,134.28162 -37.22244,88.70416 -38.50778,187.48883 -7.08025,278 7.85797,22.63092 18.7513,44.49243 31.05556,65 4.57239,7.62079 16.90781,20.27625 17.57252,29 0.82392,10.81299 -8.54956,26.73206 -11.97221,37 l -23,69 c -3.68633,11.05896 -9.29366,22.4458 -11,34 m 228,-568.67517 c 12.13599,-0.89581 18.23013,8.93194 22.69135,18.67517 10.19937,22.27527 18.55642,45.45831 28.15896,68 4.71488,11.06805 11.68295,21.83453 7.08411,34 -4.70566,12.44806 -14.08344,23.34906 -23.02317,33 -4.99118,5.38824 -12.69009,11.79413 -11.68286,20 1.04096,8.48047 8.50406,17.11127 13.10495,24 13.00696,19.47485 27.89975,37.62927 44.66666,53.98535 27.15347,26.48816 64.383,51.58502 101,62.79474 10.26776,3.14331 16.66034,-4.66644 22.72839,-11.78009 9.18122,-10.76318 18.15491,-21.68414 26.64508,-33 4.61976,-6.15735 9.03333,-12.50739 17.62653,-11.81177 10.43616,0.84485 20.76276,7.08435 30,11.55329 16.97717,8.21344 34.12573,16.06829 51,24.50543 7.61682,3.80835 21.39716,7.76062 25.42749,15.79321 4.18921,8.34912 1.12659,21.22717 -0.34802,29.95984 -6.56207,38.86133 -39.57947,64.9314 -77.07947,73.76392 -41.00616,9.6582 -81.17108,-5.69886 -119,-20.56098 -99.32187,-39.02142 -180.09326,-117.6969 -229.67978,-212.20294 -25.08606,-47.81104 -29.77649,-109.01959 5.94058,-153 6.95575,-8.565 14.70252,-18.15594 24.7392,-23.18982 12.11511,-6.07629 26.85553,-3.51508 40,-4.48535 z"
       id="path1" />
  </g>
</svg>
